<svg width="20" height="20" viewBox="0 0 20 20" fill="none" xmlns="http://www.w3.org/2000/svg">
<g clip-path="url(#clip0_13_179)">
<path d="M14.1098 6.27664C14.4356 5.9509 14.9639 5.9509 15.2897 6.27664C15.6154 6.6025 15.6154 7.13087 15.2897 7.45661L9.02349 13.723C8.69764 14.0488 8.16927 14.0488 7.84352 13.723L4.71032 10.5898C4.38457 10.2641 4.38457 9.7357 4.71032 9.40996C5.03618 9.0841 5.56454 9.0841 5.89029 9.40996L8.43351 11.9532L14.1098 6.27664ZM9.99994 0C12.761 0 15.2612 1.11948 17.0709 2.92912C18.8805 4.73866 20 7.23904 20 9.99994C20 12.7613 18.8806 15.2612 17.0709 17.0709C15.2612 18.8805 12.761 20 9.99994 20C7.2387 20 4.73866 18.8806 2.92912 17.0709C1.11925 15.2612 0 12.7613 0 9.99994C0 7.23904 1.11948 4.73866 2.92912 2.92912C4.73866 1.11925 7.2387 0 9.99994 0ZM15.891 4.10898C14.3835 2.60158 12.3006 1.66909 9.99994 1.66909C7.69915 1.66909 5.61627 2.60158 4.10898 4.10898C2.60158 5.61638 1.66909 7.69937 1.66909 9.99994C1.66909 12.3009 2.60158 14.3837 4.10898 15.891C5.61627 17.3984 7.69915 18.3308 9.99994 18.3308C12.3006 18.3308 14.3835 17.3984 15.891 15.891C17.3984 14.3837 18.3308 12.3009 18.3308 9.99994C18.3308 7.69937 17.3984 5.61638 15.891 4.10898Z" fill="#053C11"/>
</g>
<defs>
<clipPath id="clip0_13_179">
<rect width="20" height="20" fill="white"/>
</clipPath>
</defs>
</svg>
