<svg width="28" height="28" viewBox="0 0 28 28" fill="none" xmlns="http://www.w3.org/2000/svg">
<path d="M12.5 16C12.1694 16 11.8922 15.888 11.6682 15.664C11.4442 15.44 11.3326 15.1631 11.3333 14.8333C11.3333 14.5028 11.4453 14.2255 11.6693 14.0015C11.8933 13.7775 12.1702 13.6659 12.5 13.6667C12.8306 13.6667 13.1078 13.7787 13.3318 14.0027C13.5558 14.2267 13.6674 14.5036 13.6667 14.8333C13.6667 15.1639 13.5547 15.4412 13.3307 15.6652C13.1067 15.8892 12.8298 16.0008 12.5 16ZM7.83334 16C7.50278 16 7.2255 15.888 7.0015 15.664C6.7775 15.44 6.66589 15.1631 6.66667 14.8333C6.66667 14.5028 6.77867 14.2255 7.00267 14.0015C7.22667 13.7775 7.50356 13.6659 7.83334 13.6667C8.16389 13.6667 8.44117 13.7787 8.66517 14.0027C8.88917 14.2267 9.00078 14.5036 9 14.8333C9 15.1639 8.888 15.4412 8.664 15.6652C8.44 15.8892 8.16311 16.0008 7.83334 16ZM17.1667 16C16.8361 16 16.5588 15.888 16.3348 15.664C16.1108 15.44 15.9992 15.1631 16 14.8333C16 14.5028 16.112 14.2255 16.336 14.0015C16.56 13.7775 16.8369 13.6659 17.1667 13.6667C17.4972 13.6667 17.7745 13.7787 17.9985 14.0027C18.2225 14.2267 18.3341 14.5036 18.3333 14.8333C18.3333 15.1639 18.2213 15.4412 17.9973 15.6652C17.7733 15.8892 17.4964 16.0008 17.1667 16ZM12.5 20.6667C12.1694 20.6667 11.8922 20.5547 11.6682 20.3307C11.4442 20.1067 11.3326 19.8298 11.3333 19.5C11.3333 19.1694 11.4453 18.8922 11.6693 18.6682C11.8933 18.4442 12.1702 18.3326 12.5 18.3333C12.8306 18.3333 13.1078 18.4453 13.3318 18.6693C13.5558 18.8933 13.6674 19.1702 13.6667 19.5C13.6667 19.8306 13.5547 20.1078 13.3307 20.3318C13.1067 20.5558 12.8298 20.6674 12.5 20.6667ZM7.83334 20.6667C7.50278 20.6667 7.2255 20.5547 7.0015 20.3307C6.7775 20.1067 6.66589 19.8298 6.66667 19.5C6.66667 19.1694 6.77867 18.8922 7.00267 18.6682C7.22667 18.4442 7.50356 18.3326 7.83334 18.3333C8.16389 18.3333 8.44117 18.4453 8.66517 18.6693C8.88917 18.8933 9.00078 19.1702 9 19.5C9 19.8306 8.888 20.1078 8.664 20.3318C8.44 20.5558 8.16311 20.6674 7.83334 20.6667ZM17.1667 20.6667C16.8361 20.6667 16.5588 20.5547 16.3348 20.3307C16.1108 20.1067 15.9992 19.8298 16 19.5C16 19.1694 16.112 18.8922 16.336 18.6682C16.56 18.4442 16.8369 18.3326 17.1667 18.3333C17.4972 18.3333 17.7745 18.4453 17.9985 18.6693C18.2225 18.8933 18.3341 19.1702 18.3333 19.5C18.3333 19.8306 18.2213 20.1078 17.9973 20.3318C17.7733 20.5558 17.4964 20.6674 17.1667 20.6667ZM4.33334 25.3333C3.69167 25.3333 3.14217 25.1047 2.68484 24.6473C2.2275 24.19 1.99922 23.6409 2 23V6.66667C2 6.025 2.22867 5.4755 2.686 5.01817C3.14334 4.56083 3.69245 4.33256 4.33334 4.33333H5.5V2H7.83334V4.33333H17.1667V2H19.5V4.33333H20.6667C21.3083 4.33333 21.8578 4.562 22.3152 5.01933C22.7725 5.47667 23.0008 6.02578 23 6.66667V23C23 23.6417 22.7713 24.1912 22.314 24.6485C21.8567 25.1058 21.3076 25.3341 20.6667 25.3333H4.33334ZM4.33334 23H20.6667V11.3333H4.33334V23Z" fill="#F8F8F8"/>
</svg>
