<svg width="29" height="29" viewBox="0 0 29 29" fill="none" xmlns="http://www.w3.org/2000/svg">
<path d="M14.4397 21.7501C14.8626 21.7501 15.2202 21.6039 15.5127 21.3115C15.8051 21.019 15.9509 20.6618 15.9501 20.2397C15.9501 19.8167 15.8043 19.4591 15.5127 19.1667C15.2211 18.8742 14.8634 18.7284 14.4397 18.7292C14.0167 18.7292 13.6595 18.8755 13.3679 19.1679C13.0763 19.4603 12.9301 19.8176 12.9292 20.2397C12.9292 20.6626 13.0755 21.0202 13.3679 21.3127C13.6603 21.6051 14.0176 21.7509 14.4397 21.7501ZM13.3522 17.098H15.5876C15.5876 16.4334 15.6633 15.9098 15.8147 15.5272C15.9662 15.1445 16.3939 14.6209 17.098 13.9563C17.6216 13.4327 18.0345 12.9341 18.3365 12.4604C18.6386 11.9867 18.7897 11.418 18.7897 10.7542C18.7897 9.62647 18.3768 8.7605 17.5511 8.15633C16.7254 7.55217 15.7487 7.25008 14.6209 7.25008C13.473 7.25008 12.5414 7.55217 11.826 8.15633C11.1107 8.7605 10.6125 9.4855 10.3313 10.3313L12.3251 11.1167C12.4258 10.7542 12.6525 10.3615 13.0054 9.93862C13.3582 9.51571 13.8967 9.30425 14.6209 9.30425C15.2654 9.30425 15.7487 9.48066 16.0709 9.8335C16.3931 10.1863 16.5542 10.5738 16.5542 10.9959C16.5542 11.3987 16.4334 11.7765 16.1917 12.1293C15.9501 12.4822 15.648 12.8092 15.2855 13.1105C14.3994 13.8959 13.8556 14.49 13.6542 14.8928C13.4529 15.2956 13.3522 16.0306 13.3522 17.098ZM14.5001 26.5834C12.8286 26.5834 11.2577 26.266 9.78758 25.6312C8.31744 24.9965 7.03862 24.1357 5.95112 23.049C4.86362 21.9615 4.00289 20.6827 3.36891 19.2126C2.73494 17.7424 2.41755 16.1716 2.41675 14.5001C2.41675 12.8286 2.73414 11.2577 3.36891 9.78758C4.00369 8.31744 4.86443 7.03862 5.95112 5.95112C7.03862 4.86362 8.31744 4.00289 9.78758 3.36891C11.2577 2.73494 12.8286 2.41755 14.5001 2.41675C16.1716 2.41675 17.7424 2.73414 19.2126 3.36891C20.6827 4.00369 21.9615 4.86443 23.049 5.95112C24.1365 7.03862 24.9977 8.31744 25.6325 9.78758C26.2672 11.2577 26.5842 12.8286 26.5834 14.5001C26.5834 16.1716 26.266 17.7424 25.6312 19.2126C24.9965 20.6827 24.1357 21.9615 23.049 23.049C21.9615 24.1365 20.6827 24.9977 19.2126 25.6325C17.7424 26.2672 16.1716 26.5842 14.5001 26.5834ZM14.5001 24.1667C17.1987 24.1667 19.4845 23.2303 21.3574 21.3574C23.2303 19.4845 24.1667 17.1987 24.1667 14.5001C24.1667 11.8015 23.2303 9.51571 21.3574 7.64279C19.4845 5.76987 17.1987 4.83341 14.5001 4.83341C11.8015 4.83341 9.51571 5.76987 7.64279 7.64279C5.76987 9.51571 4.83341 11.8015 4.83341 14.5001C4.83341 17.1987 5.76987 19.4845 7.64279 21.3574C9.51571 23.2303 11.8015 24.1667 14.5001 24.1667Z" fill="#F8F8F8"/>
</svg>
