<svg width="28" height="28" viewBox="0 0 28 28" fill="none" xmlns="http://www.w3.org/2000/svg">
<g clip-path="url(#clip0_362_108)">
<path d="M6.36673 7.53005L9.94819 11.1274L11.1431 9.93775L7.5616 6.34044L8.23172 5.67328C8.39014 5.51551 8.47941 5.30128 8.4799 5.0777C8.4804 4.85412 8.39207 4.6395 8.23435 4.48103L4.8691 1.1009C4.71133 0.94248 4.4971 0.853208 4.27352 0.852714C4.04994 0.852221 3.83532 0.940547 3.67685 1.09827L1.14175 3.6222C0.983334 3.77997 0.894063 3.9942 0.893569 4.21778C0.893076 4.44136 0.981401 4.65598 1.13912 4.81445L4.50437 8.19458C4.66214 8.353 4.87637 8.44227 5.09995 8.44277C5.32353 8.44326 5.53815 8.35494 5.69662 8.19721L6.36673 7.53005ZM2.92881 4.22227L4.26903 2.88795L6.44466 5.07321L5.10444 6.40753L2.92881 4.22227Z" fill="#F8F8F8"/>
<path d="M1.70114 20.2398C1.70566 18.8985 2.242 17.6138 3.19251 16.6675C4.14302 15.7212 5.43008 15.1905 6.77134 15.1919C7.2121 15.1933 7.65068 15.2538 8.07534 15.3719L15.3959 8.08442C15.2797 7.65896 15.2211 7.21983 15.2217 6.7788C15.2202 5.95453 15.421 5.14248 15.8063 4.41386C16.1917 3.68523 16.75 3.06228 17.4322 2.59961C18.1143 2.13695 18.8996 1.8487 19.7191 1.76013C20.5386 1.67157 21.3673 1.78541 22.1326 2.09165L23.3297 2.56479L20.5309 5.35121C20.3773 5.51134 20.2914 5.7245 20.2909 5.94639C20.2904 6.16827 20.3754 6.3818 20.5283 6.54261C20.6064 6.62116 20.6992 6.68353 20.8013 6.72618C20.9035 6.76883 21.0131 6.7909 21.1239 6.79115C21.2346 6.79139 21.3443 6.7698 21.4467 6.7276C21.5491 6.68541 21.6421 6.62344 21.7206 6.54524L24.521 3.75967L24.988 4.96054C25.2903 5.72714 25.4 6.55617 25.3076 7.37503C25.2151 8.19388 24.9232 8.97756 24.4575 9.65742C23.9918 10.3373 23.3665 10.8926 22.6364 11.2746C21.9063 11.6567 21.0936 11.8539 20.2695 11.849C19.8288 11.8476 19.3902 11.7871 18.9655 11.6691L11.645 18.9573C11.7611 19.3825 11.8197 19.8214 11.8192 20.2621C11.8207 21.0864 11.6199 21.8984 11.2345 22.627C10.8491 23.3557 10.2909 23.9786 9.60872 24.4413C8.92654 24.904 8.14128 25.1922 7.32178 25.2808C6.50229 25.3693 5.67357 25.2555 4.90831 24.9493L3.7112 24.477L6.50995 21.6897C6.66354 21.5296 6.74951 21.3164 6.75 21.0945C6.75049 20.8726 6.66546 20.6591 6.51258 20.4983C6.43457 20.4197 6.34183 20.3573 6.23966 20.3145C6.1375 20.2718 6.02791 20.2497 5.91718 20.2493C5.80644 20.249 5.69672 20.2705 5.59431 20.3127C5.4919 20.3548 5.3988 20.4167 5.32033 20.4948L2.52074 23.2821L2.05289 22.0821C1.82107 21.4955 1.70174 20.8705 1.70114 20.2398ZM17.346 8.52211L8.50611 17.3231L7.99222 17.1204C7.49899 16.9219 6.96559 16.8435 6.43609 16.8918C5.90658 16.9401 5.39617 17.1137 4.947 17.3982C4.49783 17.6827 4.1228 18.07 3.85289 18.5281C3.58297 18.9862 3.42592 19.5019 3.39469 20.0327L4.12988 19.2999C4.36529 19.0655 4.64457 18.8798 4.95177 18.7533C5.25898 18.6268 5.58809 18.5621 5.9203 18.5629C6.25252 18.5636 6.58134 18.6298 6.88798 18.7576C7.19462 18.8854 7.47308 19.0724 7.70746 19.3078C8.16651 19.7907 8.42184 20.4319 8.42037 21.0982C8.4189 21.7645 8.16074 22.4046 7.69956 22.8854L6.96354 23.6174C7.49449 23.5883 8.01091 23.4334 8.47019 23.1655C8.92946 22.8975 9.3184 22.5241 9.60488 22.0761C9.89137 21.6282 10.0672 21.1185 10.1178 20.5891C10.1685 20.0598 10.0925 19.526 9.89611 19.0319L9.69572 18.518L18.5348 9.71783L19.0487 9.92133C19.542 10.1199 20.0754 10.1983 20.605 10.1499C21.1346 10.1016 21.645 9.92794 22.0942 9.64332C22.5434 9.3587 22.9184 8.97128 23.1883 8.51308C23.4581 8.05488 23.6151 7.53904 23.6462 7.00818L22.911 7.74012C22.6756 7.97454 22.3963 8.16028 22.0891 8.28675C21.7819 8.41322 21.4528 8.47794 21.1206 8.47721C20.7884 8.47647 20.4595 8.4103 20.1529 8.28248C19.8463 8.15466 19.5678 7.96768 19.3334 7.73223C18.8744 7.24934 18.619 6.60812 18.6205 5.94186C18.622 5.27559 18.8801 4.63551 19.3413 4.15465L20.0773 3.42271C19.5464 3.45159 19.03 3.60637 18.5707 3.87426C18.1114 4.14215 17.7225 4.51546 17.436 4.96337C17.1495 5.41128 16.9736 5.92092 16.923 6.45021C16.8724 6.97949 16.9484 7.51323 17.1448 8.00733L17.346 8.52211Z" fill="#F8F8F8"/>
<path d="M24.5838 24.61C25.045 24.1291 25.3032 23.489 25.3046 22.8228C25.3061 22.1565 25.0508 21.5153 24.5917 21.0324L18.2987 14.7115L17.1038 15.9012L23.3969 22.222C23.5498 22.383 23.6348 22.5966 23.6344 22.8187C23.6339 23.0407 23.5479 23.254 23.3942 23.4143C23.2355 23.5716 23.021 23.6596 22.7976 23.6591C22.5741 23.6586 22.36 23.5696 22.202 23.4116L15.909 17.0908L14.7132 18.2804L21.0063 24.6012C21.4799 25.0761 22.1227 25.3437 22.7934 25.3452C23.4642 25.3467 24.1081 25.0828 24.5838 24.61Z" fill="#F8F8F8"/>
</g>
<defs>
<clipPath id="clip0_362_108">
<rect width="26.9816" height="26.9816" fill="white" transform="translate(27.041 0.0595703) rotate(90.1265)"/>
</clipPath>
</defs>
</svg>
