<svg width="27" height="27" viewBox="0 0 27 27" fill="none" xmlns="http://www.w3.org/2000/svg">
<path d="M6.75 2.25H16.875C17.4717 2.25 18.044 2.48705 18.466 2.90901C18.8879 3.33097 19.125 3.90326 19.125 4.5V6.75H16.875V4.5H6.75V22.5H16.875V20.25H19.125V22.5C19.125 23.0967 18.8879 23.669 18.466 24.091C18.044 24.5129 17.4717 24.75 16.875 24.75H6.75C6.15326 24.75 5.58097 24.5129 5.15901 24.091C4.73705 23.669 4.5 23.0967 4.5 22.5V4.5C4.5 3.90326 4.73705 3.33097 5.15901 2.90901C5.58097 2.48705 6.15326 2.25 6.75 2.25Z" fill="#F8F8F8"/>
<path d="M18.1013 17.5387L19.6875 19.125L25.3125 13.5L19.6875 7.875L18.1013 9.46125L21.0037 12.375H10.125V14.625H21.0037L18.1013 17.5387Z" fill="#F8F8F8"/>
</svg>
