<svg width="30" height="30" viewBox="0 0 30 30" fill="none" xmlns="http://www.w3.org/2000/svg">
<path d="M28.188 13.842C26.106 14.394 23.922 15.462 22.452 17.112C21.774 16.608 21.072 16.146 20.34 15.72C20.82 15.426 21.324 15.168 21.834 14.934C23.724 14.088 25.782 13.662 27.846 13.572C28.464 13.548 28.47 12.576 27.846 12.606C24.966 12.726 21.768 13.458 19.38 15.186C18.702 14.832 18.006 14.508 17.304 14.214C17.856 13.83 18.534 13.506 19.146 13.26C21.648 12.27 24.39 12.15 27.036 12.438C27.654 12.504 27.648 11.538 27.036 11.472C24.27 11.172 21.378 11.322 18.768 12.378C17.898 12.732 16.974 13.176 16.254 13.806C15.462 13.512 14.652 13.26 13.842 13.044V9.672H14.004C14.19 9.672 14.364 9.58201 14.466 9.42601C14.568 9.27001 14.592 9.078 14.526 8.904L13.536 6.38401C13.446 6.16201 13.284 5.97 13.074 5.856L9.85201 4.04401C9.47401 3.83401 9.00601 3.83401 8.63401 4.04401L5.41801 5.85C5.20801 5.97 5.04601 6.15601 4.95601 6.37801L3.96601 8.89801C3.90001 9.07201 3.91801 9.264 4.02601 9.42C4.12801 9.576 4.30201 9.66601 4.48801 9.66601H4.65001V12.564C3.55201 12.69 2.44801 12.906 1.45801 13.338C0.888007 13.584 1.38001 14.418 1.94401 14.172C1.75201 14.256 2.09401 14.124 2.16601 14.1C2.45401 14.004 2.75401 13.926 3.04801 13.854C3.10801 13.842 3.17401 13.824 3.23401 13.812C3.23401 13.812 3.23401 13.812 3.24001 13.818C3.25801 13.83 3.27601 13.848 3.30001 13.86C3.15001 13.758 3.34801 13.896 3.38401 13.926C3.58201 14.094 3.77401 14.268 3.96001 14.448C4.58401 15.066 5.13601 15.756 5.61601 16.488C7.40401 19.212 8.22001 22.428 8.37601 25.662C8.40601 26.28 9.37201 26.286 9.34201 25.662C9.18001 22.266 8.33401 18.864 6.45001 16.002C5.89201 15.156 5.24401 14.292 4.47601 13.584C4.79401 13.536 5.11801 13.5 5.43601 13.47C5.44201 13.476 5.44801 13.476 5.46001 13.482C6.75601 14.04 7.93201 14.976 8.95801 15.918C11.676 18.426 13.53 21.696 14.604 25.218C14.784 25.812 15.72 25.56 15.54 24.96C14.43 21.33 12.528 17.934 9.74401 15.324C9.00001 14.628 8.17201 13.926 7.28401 13.362C7.68001 13.35 8.07601 13.35 8.48401 13.356C10.776 14.304 13.068 15.702 15.084 17.208C17.748 19.206 20.106 21.684 21.57 24.702C21.84 25.26 22.674 24.774 22.404 24.216C20.898 21.102 18.456 18.57 15.726 16.494C14.262 15.378 12.684 14.364 11.04 13.5C11.268 13.518 11.496 13.542 11.724 13.566H11.742C11.784 13.572 11.94 13.596 11.976 13.602C12.234 13.65 12.492 13.704 12.75 13.764C13.626 13.968 14.496 14.22 15.348 14.514C18.03 15.432 20.616 16.776 22.8 18.6C24.312 19.86 25.608 21.342 26.622 23.028C26.946 23.562 27.78 23.076 27.456 22.542C26.334 20.682 24.882 19.074 23.22 17.718C23.226 17.712 23.226 17.706 23.232 17.706C23.55 17.382 23.892 17.076 24.252 16.8C25.494 15.84 26.934 15.186 28.446 14.79C29.046 14.616 28.788 13.68 28.188 13.842ZM11.292 12.546C10.392 12.462 9.50401 12.408 8.65201 12.39C8.56201 12.36 8.47801 12.36 8.41201 12.384C8.26201 12.384 8.11801 12.378 7.96801 12.378C7.69201 12.378 7.41601 12.384 7.14601 12.39V9.58801C7.14601 9.41401 7.29001 9.27 7.46401 9.27H10.98C11.154 9.27 11.298 9.41401 11.298 9.58801V12.546H11.292ZM12.264 12.666V9.58801C12.264 8.88001 11.688 8.304 10.98 8.304H7.46401C6.75601 8.304 6.18001 8.88001 6.18001 9.58801V12.432C5.99401 12.444 5.80801 12.456 5.62201 12.468V9.25801C5.62201 8.95801 5.38201 8.706 5.08201 8.694L5.85601 6.726C5.86201 6.708 5.87401 6.696 5.89201 6.69L9.11401 4.87801C9.19801 4.83001 9.30001 4.83001 9.38401 4.87801L12.612 6.69C12.624 6.696 12.636 6.708 12.642 6.726L13.41 8.694C13.11 8.706 12.87 8.95201 12.87 9.25801V12.792C12.672 12.75 12.468 12.702 12.264 12.666Z" fill="#053C11"/>
</svg>
