<svg width="30" height="30" viewBox="0 0 30 30" fill="none" xmlns="http://www.w3.org/2000/svg">
<path fill-rule="evenodd" clip-rule="evenodd" d="M17.805 6.8775C16.3946 6.91952 15.0422 7.44866 13.9778 8.37498C12.9134 9.3013 12.2026 10.5676 11.9662 11.9588C11.8637 11.9413 11.7612 11.9213 11.6575 11.9088C10.4338 11.764 9.19847 12.0593 8.1725 12.7419C7.16256 13.4136 6.4191 14.4171 6.07068 15.5789C5.72225 16.7407 5.79077 17.9877 6.26437 19.1044L5.6325 22.1231C5.62139 22.1759 5.62415 22.2307 5.64052 22.2822C5.65688 22.3336 5.68629 22.3799 5.72588 22.4166C5.76547 22.4533 5.81388 22.4791 5.86642 22.4916C5.91895 22.504 5.9738 22.5026 6.02562 22.4875L8.70687 21.7138C9.78682 22.2589 11.0229 22.4109 12.2027 22.1435C13.3826 21.8761 14.4324 21.2062 15.1719 20.2488C15.518 19.7976 15.7875 19.2925 15.9694 18.7538C16.749 19.0287 17.5764 19.1423 18.4013 19.0877C19.2263 19.0331 20.0315 18.8115 20.7681 18.4363L23.9769 19.3613C24.0287 19.3764 24.0835 19.3779 24.1361 19.3656C24.1887 19.3533 24.2371 19.3275 24.2768 19.2909C24.3164 19.2543 24.3459 19.208 24.3624 19.1566C24.3788 19.1051 24.3817 19.0503 24.3706 18.9975L23.6131 15.3975C24.1761 14.083 24.2608 12.6128 23.8525 11.2423C23.4442 9.87183 22.5687 8.68769 21.3781 7.89563C20.3219 7.1929 19.073 6.83743 17.805 6.8775ZM17.825 7.4975V7.49875C18.9635 7.46357 20.0846 7.78405 21.0325 8.41563C22.1171 9.13494 22.9109 10.2163 23.272 11.4666C23.6332 12.717 23.5384 14.055 23.0044 15.2419C22.9754 15.3058 22.9688 15.3775 22.9856 15.4456C22.9863 15.4504 22.9872 15.4552 22.9881 15.46L23.6506 18.6181L20.8706 17.815C20.8585 17.8113 20.8462 17.8084 20.8337 17.8063C20.8002 17.7957 20.7651 17.7908 20.73 17.7919C20.6808 17.7931 20.6326 17.806 20.5894 17.8294C19.9117 18.1921 19.1652 18.4082 18.3986 18.4636C17.6319 18.5189 16.8621 18.4123 16.1394 18.1506C16.4116 16.8547 16.1801 15.5038 15.4919 14.3725H21.5587C21.6416 14.3725 21.7211 14.3396 21.7797 14.281C21.8383 14.2224 21.8712 14.1429 21.8712 14.06C21.8712 13.9771 21.8383 13.8976 21.7797 13.839C21.7211 13.7804 21.6416 13.7475 21.5587 13.7475H15.0437C14.9819 13.6731 14.9225 13.5975 14.8562 13.5269C14.2344 12.8601 13.4478 12.369 12.5756 12.1031C12.7794 10.8453 13.4147 9.69757 14.3725 8.85706C15.3302 8.01655 16.5507 7.53564 17.8244 7.49688L17.825 7.4975ZM14.6619 9.99875C14.579 10.0029 14.5012 10.0398 14.4455 10.1013C14.3898 10.1629 14.3609 10.244 14.365 10.3269C14.3691 10.4098 14.406 10.4876 14.4676 10.5433C14.5291 10.5989 14.6102 10.6279 14.6931 10.6238H21.5563C21.6391 10.6238 21.7186 10.5908 21.7772 10.5322C21.8358 10.4736 21.8688 10.3941 21.8688 10.3113C21.8688 10.2284 21.8358 10.1489 21.7772 10.0903C21.7186 10.0317 21.6391 9.99875 21.5563 9.99875H14.6937C14.6831 9.99821 14.6725 9.99821 14.6619 9.99875ZM14.6619 11.8738C14.579 11.8779 14.5012 11.9148 14.4455 11.9763C14.3898 12.0379 14.3609 12.119 14.365 12.2019C14.3691 12.2848 14.406 12.3626 14.4676 12.4183C14.5291 12.4739 14.6102 12.5029 14.6931 12.4988H21.5563C21.6391 12.4988 21.7186 12.4658 21.7772 12.4072C21.8358 12.3486 21.8688 12.2691 21.8688 12.1863C21.8688 12.1034 21.8358 12.0239 21.7772 11.9653C21.7186 11.9067 21.6391 11.8738 21.5563 11.8738H14.6937C14.6831 11.8732 14.6725 11.8732 14.6619 11.8738ZM11.1912 12.4988C11.7954 12.5172 12.39 12.6553 12.9404 12.9051C13.4909 13.1548 13.9863 13.5112 14.3981 13.9538C15.1381 14.7464 15.5723 15.7761 15.6232 16.8592C15.6742 17.9423 15.3385 19.0083 14.6762 19.8669C14.0147 20.7261 13.0694 21.3223 12.0091 21.5493C10.9487 21.7763 9.84221 21.6193 8.88687 21.1063C8.84927 21.0857 8.80784 21.0731 8.76515 21.0692C8.72247 21.0653 8.67944 21.0703 8.63875 21.0838C8.63033 21.0855 8.62199 21.0876 8.61375 21.09L6.35125 21.7431L6.89062 19.1638C6.89065 19.1617 6.89065 19.1596 6.89062 19.1575C6.90996 19.0883 6.90489 19.0146 6.87625 18.9488C6.43098 17.96 6.35164 16.8452 6.6524 15.8034C6.95315 14.7616 7.61442 13.8606 8.51812 13.2613C9.30827 12.7355 10.2426 12.4689 11.1912 12.4988ZM8.41187 14.9988C8.32899 15.0029 8.25116 15.0398 8.19548 15.1013C8.13981 15.1629 8.11086 15.244 8.115 15.3269C8.11914 15.4098 8.15604 15.4876 8.21758 15.5433C8.27911 15.5989 8.36024 15.6279 8.44312 15.6238H14.0587C14.1416 15.6238 14.2211 15.5908 14.2797 15.5322C14.3383 15.4736 14.3712 15.3941 14.3712 15.3113C14.3712 15.2284 14.3383 15.1489 14.2797 15.0903C14.2211 15.0317 14.1416 14.9988 14.0587 14.9988H8.44375C8.43313 14.9982 8.42249 14.9982 8.41187 14.9988ZM17.0262 15.6238C16.9434 15.628 16.8656 15.665 16.8099 15.7266C16.7543 15.7881 16.7255 15.8693 16.7297 15.9522C16.7339 16.0351 16.7709 16.1129 16.8325 16.1685C16.8941 16.2241 16.9752 16.253 17.0581 16.2488H18.5606C18.6435 16.2488 18.723 16.2158 18.7816 16.1572C18.8402 16.0986 18.8731 16.0191 18.8731 15.9363C18.8731 15.8534 18.8402 15.7739 18.7816 15.7153C18.723 15.6567 18.6435 15.6238 18.5606 15.6238H17.0581C17.0477 15.6232 17.0367 15.6232 17.0262 15.6238ZM8.41187 16.8738C8.32899 16.8779 8.25116 16.9148 8.19548 16.9763C8.13981 17.0379 8.11086 17.119 8.115 17.2019C8.11914 17.2848 8.15604 17.3626 8.21758 17.4183C8.27911 17.4739 8.36024 17.5029 8.44312 17.4988H14.0587C14.1416 17.4988 14.2211 17.4658 14.2797 17.4072C14.3383 17.3486 14.3712 17.2691 14.3712 17.1863C14.3712 17.1034 14.3383 17.0239 14.2797 16.9653C14.2211 16.9067 14.1416 16.8738 14.0587 16.8738H8.44375C8.43313 16.8732 8.42249 16.8732 8.41187 16.8738ZM8.40687 18.7488C8.32399 18.753 8.24619 18.79 8.19057 18.8515C8.13496 18.9131 8.10609 18.9943 8.11031 19.0772C8.11454 19.1601 8.15152 19.2379 8.21311 19.2935C8.2747 19.3491 8.35587 19.378 8.43875 19.3738H10.9388C11.0216 19.3738 11.1011 19.3408 11.1597 19.2822C11.2183 19.2236 11.2512 19.1441 11.2512 19.0613C11.2512 18.9784 11.2183 18.8989 11.1597 18.8403C11.1011 18.7817 11.0216 18.7488 10.9388 18.7488H8.43875C8.42834 18.7482 8.41729 18.7482 8.40687 18.7488Z" fill="#053C11"/>
</svg>
