<svg width="30" height="30" viewBox="0 0 30 30" fill="none" xmlns="http://www.w3.org/2000/svg">
<path d="M16.32 21.8856H13.68C13.5607 21.8856 13.4462 21.8382 13.3618 21.7538C13.2774 21.6694 13.23 21.5549 13.23 21.4356V13.2216C13.23 13.1022 13.2774 12.9878 13.3618 12.9034C13.4462 12.819 13.5607 12.7716 13.68 12.7716H16.32C16.4394 12.7716 16.5538 12.819 16.6382 12.9034C16.7226 12.9878 16.77 13.1022 16.77 13.2216V21.4356C16.77 21.5549 16.7226 21.6694 16.6382 21.7538C16.5538 21.8382 16.4394 21.8856 16.32 21.8856ZM14.1324 20.9856H15.87V13.6716H14.1312L14.1324 20.9856ZM15 11.6508C14.6501 11.6508 14.3081 11.547 14.0172 11.3526C13.7263 11.1582 13.4996 10.8819 13.3657 10.5586C13.2319 10.2353 13.1969 9.87962 13.2653 9.53647C13.3336 9.19333 13.5022 8.87816 13.7497 8.63084C13.9972 8.38351 14.3125 8.21515 14.6557 8.14703C14.9989 8.07892 15.3545 8.11412 15.6777 8.24818C16.0009 8.38224 16.2771 8.60914 16.4713 8.90017C16.6655 9.19121 16.769 9.5333 16.7688 9.88319C16.7682 10.352 16.5816 10.8014 16.25 11.1328C15.9184 11.4642 15.4688 11.6505 15 11.6508ZM15 9.01079C14.8282 9.01079 14.6602 9.06174 14.5173 9.15721C14.3745 9.25267 14.2631 9.38836 14.1973 9.54712C14.1316 9.70587 14.1144 9.88055 14.1479 10.0491C14.1814 10.2176 14.2642 10.3724 14.3857 10.4939C14.5072 10.6154 14.662 10.6982 14.8305 10.7317C14.999 10.7652 15.1737 10.748 15.3325 10.6823C15.4912 10.6165 15.6269 10.5051 15.7224 10.3623C15.8179 10.2194 15.8688 10.0514 15.8688 9.87959C15.8675 9.64989 15.7755 9.43002 15.6127 9.26793C15.45 9.10585 15.2297 9.0147 15 9.01439V9.01079Z" fill="#053C11"/>
</svg>
