<svg width="30" height="30" viewBox="0 0 30 30" fill="none" xmlns="http://www.w3.org/2000/svg">
<path d="M24.3691 19.6582C23.5137 18.7793 21.082 17.1328 19.4883 17.1328C19.1191 17.1328 18.7969 17.2148 18.5332 17.3848C17.7539 17.8828 17.1328 18.2695 16.834 18.2695C16.6699 18.2695 16.4941 18.123 16.1074 17.7891L16.043 17.7305C14.9707 16.7988 14.7422 16.5586 14.3262 16.125L14.2207 16.0137C14.1445 15.9375 14.0801 15.8672 14.0156 15.8027C13.6523 15.4277 13.3887 15.1582 12.457 14.1035L12.416 14.0566C11.9707 13.5527 11.6777 13.2246 11.6601 12.9844C11.6426 12.75 11.8476 12.3691 12.3691 11.6602C13.0019 10.8047 13.0254 9.75 12.4453 8.52539C11.9824 7.55859 11.2266 6.63281 10.5586 5.81836L10.5 5.74805C9.92577 5.04492 9.2578 4.69336 8.51366 4.69336C7.68749 4.69336 7.00194 5.13867 6.63866 5.37305C6.60937 5.39062 6.58007 5.41406 6.55077 5.43164C5.73632 5.94727 5.14452 6.65625 4.92187 7.37695C4.58788 8.46094 4.36522 9.86719 5.96483 12.791C7.34765 15.3223 8.60155 17.0215 10.5937 19.0664C12.4687 20.9883 13.3008 21.6094 15.1641 22.957C17.2383 24.457 19.2305 25.3184 20.625 25.3184C21.9199 25.3184 22.9394 25.3184 24.3926 23.5664C25.916 21.7266 25.2832 20.6016 24.3691 19.6582ZM23.6953 22.9336C22.5234 24.3516 21.8496 24.3516 20.6309 24.3516C19.4414 24.3516 17.5957 23.5312 15.6973 22.166C13.8808 20.8535 13.0723 20.25 11.25 18.3809C9.32226 16.4063 8.10936 14.7598 6.77343 12.3164C5.36132 9.73242 5.51952 8.60156 5.80663 7.66992C5.95897 7.17187 6.41601 6.63867 7.0371 6.25195C7.0664 6.23437 7.09569 6.21094 7.13085 6.19336C7.4414 5.99414 7.95702 5.66016 8.51952 5.66016C8.98827 5.66016 9.40429 5.89453 9.80272 6.38086L9.86132 6.45117C11.3555 8.2793 12.5215 9.89648 11.6426 11.0918C11.0215 11.9297 10.6933 12.498 10.7461 13.084C10.793 13.6523 11.1738 14.0801 11.748 14.7246L11.7891 14.7715C12.7324 15.8379 13.0019 16.1191 13.3769 16.5C13.4414 16.5645 13.5059 16.6348 13.582 16.7109L13.6875 16.8223C14.1211 17.2734 14.3613 17.5195 15.4629 18.4863L15.5273 18.5449C15.9961 18.9551 16.3418 19.2539 16.8457 19.2539C17.3672 19.2539 17.9414 18.9258 19.0312 18.2285C19.1426 18.1582 19.3008 18.1172 19.5 18.1172C20.7715 18.1172 22.9629 19.5703 23.7305 20.3613C24.4336 21.0762 24.7851 21.6152 23.6953 22.9336Z" fill="#053C11"/>
</svg>
