<svg width="62" height="63" viewBox="0 0 62 63" fill="none" xmlns="http://www.w3.org/2000/svg">
<g filter="url(#filter0_d_781_99)">
<path d="M38.4562 6.05765L38.4491 6.04592L38.4417 6.03437C37.6416 4.78293 36.5394 3.75304 35.2365 3.03965C33.9337 2.32626 32.4722 1.95233 30.9868 1.95233C29.5014 1.95233 28.0399 2.32626 26.737 3.03965C25.4342 3.75304 24.3319 4.78293 23.5318 6.03437L23.5245 6.04592L23.5174 6.05765L6.07482 34.9813L6.07359 34.9834C5.36279 36.1681 4.97645 37.5191 4.95343 38.9005C4.9304 40.2819 5.2715 41.645 5.94242 42.8527L5.94236 42.8528L5.94831 42.8632C6.71265 44.2028 7.81899 45.3154 9.15426 46.0874C10.4889 46.8591 12.0045 47.2628 13.5461 47.2572H48.4241C49.9543 47.2725 51.4616 46.8845 52.7942 46.1321C54.1286 45.3788 55.2406 44.2869 56.0181 42.9665L56.0226 42.9588L56.0271 42.9509C56.7177 41.7306 57.0697 40.3479 57.0466 38.9459C57.0236 37.5448 56.6268 36.1753 55.8972 34.9789C55.8968 34.9781 55.8963 34.9774 55.8959 34.9766L38.4562 6.05765ZM30.9868 36.0664C30.7442 36.0664 30.507 35.9945 30.3053 35.8597C30.1036 35.725 29.9465 35.5335 29.8536 35.3094C29.7608 35.0854 29.7366 34.8388 29.7839 34.601C29.8312 34.3632 29.948 34.1447 30.1195 33.9732C30.291 33.8017 30.5095 33.6849 30.7475 33.6376C30.9854 33.5902 31.232 33.6145 31.4562 33.7073C31.6803 33.8002 31.8718 33.9573 32.0066 34.159C32.1413 34.3606 32.2132 34.5977 32.2132 34.8402C32.2132 35.1654 32.084 35.4772 31.854 35.7072C31.6241 35.9372 31.3121 36.0664 30.9868 36.0664ZM32.2132 28.0186C32.2132 28.3437 32.084 28.6556 31.854 28.8856C31.6241 29.1156 31.3121 29.2448 30.9868 29.2448C30.6615 29.2448 30.3495 29.1156 30.1195 28.8856C29.8895 28.6556 29.7603 28.3437 29.7603 28.0186V18.9231C29.7603 18.5979 29.8895 18.286 30.1195 18.0561C30.3495 17.8261 30.6615 17.6969 30.9868 17.6969C31.3121 17.6969 31.6241 17.8261 31.854 18.0561C32.084 18.286 32.2132 18.5979 32.2132 18.9231V28.0186Z" fill="#515151" stroke="white" stroke-width="2.09533"/>
</g>
<g filter="url(#filter1_d_781_99)">
<path d="M48.7508 22.308L48.7492 22.308C47.3918 22.3096 46.0905 22.8495 45.1307 23.8093C44.1709 24.7691 43.631 26.0704 43.6295 27.4278V27.4286V41.7587C42.3024 42.7712 41.3028 44.1564 40.7614 45.7412C40.1803 47.4419 40.1572 49.2837 40.6954 50.9984C41.2336 52.7132 42.305 54.2115 43.7537 55.2752C45.2024 56.3388 46.9528 56.9124 48.75 56.9124C50.5472 56.9124 52.2976 56.3388 53.7463 55.2752C55.195 54.2115 56.2664 52.7132 56.8046 50.9984C57.3428 49.2837 57.3197 47.4419 56.7386 45.7412C56.1972 44.1564 55.1976 42.7712 53.8705 41.7587L53.8705 27.4286L53.8705 27.4278C53.869 26.0704 53.3291 24.7691 52.3693 23.8093C51.4095 22.8495 50.1082 22.3096 48.7508 22.308ZM54.7009 48.4636L54.7009 48.465C54.702 49.4986 54.4339 50.5146 53.923 51.413C53.4121 52.3115 52.676 53.0614 51.7871 53.5889C50.8983 54.1164 49.8875 54.4033 48.8541 54.4213C47.8207 54.4394 46.8004 54.188 45.8937 53.6919C44.987 53.1959 44.2251 52.4722 43.6831 51.5921C43.141 50.7121 42.8376 49.7061 42.8025 48.6731C42.7675 47.6402 43.0021 46.6159 43.4832 45.7011C43.9643 44.7864 44.6754 44.0128 45.5464 43.4564L45.5476 43.4556C45.7232 43.343 45.8676 43.188 45.9678 43.005C46.0679 42.822 46.1204 42.6167 46.1205 42.4081V42.4077V27.4286C46.1205 26.7312 46.3976 26.0624 46.8907 25.5693C47.3838 25.0761 48.0526 24.7991 48.75 24.7991C49.4474 24.7991 50.1162 25.0761 50.6093 25.5693C51.1024 26.0624 51.3795 26.7312 51.3795 27.4286L51.3795 42.4066L51.3795 42.407C51.3796 42.6156 51.4321 42.8209 51.5322 43.0039C51.6324 43.1869 51.7768 43.3419 51.9524 43.4545L51.9547 43.4559C52.7971 43.9919 53.4905 44.7318 53.9706 45.6073C54.4507 46.4827 54.7019 47.4652 54.7009 48.4636Z" fill="black" stroke="white" stroke-width="1.38393"/>
<path d="M48.335 43.617V39.7455H49.1653V43.617C49.1653 43.617 49.1653 43.6171 49.1653 43.6172C49.1653 43.8259 49.2177 44.0313 49.3178 44.2145C49.4179 44.3978 49.5625 44.5529 49.7383 44.6657L49.7385 44.6659L50.7576 45.3191L50.7599 45.3206C51.2891 45.6568 51.7248 46.1212 52.0265 46.6707C52.3283 47.2202 52.4864 47.8371 52.4862 48.464L52.4862 48.4653C52.4872 49.1145 52.319 49.7528 51.9982 50.3172C51.6775 50.8816 51.2152 51.3527 50.6569 51.6841C50.0987 52.0155 49.4637 52.1957 48.8146 52.207C48.1655 52.2183 47.5246 52.0603 46.9552 51.7485C46.3857 51.4368 45.9073 50.982 45.5671 50.4291C45.2269 49.8762 45.0367 49.2441 45.015 48.5953C44.9934 47.9465 45.1413 47.3032 45.4439 46.7289C45.7466 46.1545 46.1937 45.669 46.7412 45.32L46.7426 45.3191L47.7618 44.6659L47.762 44.6657C47.9378 44.5529 48.0824 44.3978 48.1825 44.2145C48.2826 44.0313 48.335 43.8259 48.335 43.6172C48.335 43.6171 48.335 43.617 48.335 43.617ZM52.1007 43.2227L51.6558 42.9376V27.4285C51.6558 26.6578 51.3496 25.9185 50.8046 25.3735C50.2596 24.8285 49.5204 24.5223 48.7496 24.5223C47.9788 24.5223 47.2396 24.8285 46.6946 25.3735C46.1495 25.9185 45.8433 26.6578 45.8433 27.4285V42.9376L45.3985 43.2227C45.3984 43.2227 45.3984 43.2228 45.3984 43.2228C44.2629 43.9477 43.3931 45.0212 42.9195 46.2824C42.4459 47.5435 42.3939 48.9243 42.7715 50.2174C43.1491 51.5106 43.9359 52.6465 45.0137 53.4546C46.0916 54.2627 47.4024 54.6996 48.7496 54.6996C50.0968 54.6996 51.4076 54.2627 52.4854 53.4546C53.5633 52.6465 54.35 51.5106 54.7276 50.2174C55.1052 48.9243 55.0533 47.5435 54.5797 46.2824C54.106 45.0212 53.2362 43.9476 52.1007 43.2227ZM48.3344 27.4285C48.3344 27.3184 48.3781 27.2128 48.456 27.135C48.5339 27.0571 48.6395 27.0134 48.7496 27.0134C48.8597 27.0134 48.9653 27.0571 49.0432 27.135C49.121 27.2128 49.1648 27.3184 49.1648 27.4285V28.405C48.8853 28.4362 48.6232 28.5614 48.4224 28.7621C48.3912 28.7933 48.3619 28.826 48.3344 28.86V27.4285ZM48.3344 32.1814V30.4257C48.3619 30.4597 48.3912 30.4924 48.4224 30.5236C48.6232 30.7243 48.8853 30.8494 49.1648 30.8807V31.7264C48.8853 31.7577 48.6232 31.8828 48.4224 32.0835C48.3912 32.1147 48.3619 32.1474 48.3344 32.1814ZM48.3344 35.5028V33.7471C48.3619 33.7811 48.3912 33.8138 48.4224 33.845C48.6232 34.0457 48.8853 34.1709 49.1648 34.2021V35.0479C48.8853 35.0791 48.6232 35.2042 48.4224 35.405C48.3912 35.4362 48.3619 35.4688 48.3344 35.5028ZM48.3344 37.2544V37.0686C48.3619 37.1026 48.3912 37.1352 48.4224 37.1664C48.4536 37.1976 48.4863 37.227 48.5203 37.2544H48.3344Z" fill="black" stroke="white" stroke-width="1.38393"/>
<mask id="path-4-outside-1_781_99" maskUnits="userSpaceOnUse" x="43.458" y="46.3254" width="8" height="7" fill="black">
<rect fill="white" x="43.458" y="46.3254" width="8" height="7"/>
<path d="M48.7492 50.6786C48.2201 50.676 47.7093 50.4852 47.3082 50.1403C46.907 49.7955 46.6417 49.3191 46.5598 48.7964C46.5489 48.7245 46.5239 48.6554 46.4863 48.5931C46.4487 48.5308 46.3992 48.4766 46.3406 48.4334C46.2821 48.3903 46.2156 48.3591 46.1449 48.3416C46.0743 48.3242 46.0009 48.3208 45.929 48.3317C45.8571 48.3426 45.788 48.3676 45.7257 48.4052C45.6634 48.4428 45.6091 48.4923 45.566 48.5508C45.5228 48.6094 45.4916 48.6759 45.4742 48.7466C45.4567 48.8172 45.4534 48.8906 45.4643 48.9625C45.5874 49.7465 45.9856 50.461 46.5874 50.9783C47.1893 51.4956 47.9556 51.7818 48.7492 51.7857C48.896 51.7857 49.0368 51.7274 49.1406 51.6236C49.2444 51.5198 49.3027 51.379 49.3027 51.2321C49.3027 51.0853 49.2444 50.9445 49.1406 50.8407C49.0368 50.7369 48.896 50.6786 48.7492 50.6786Z"/>
</mask>
<path d="M48.7492 50.6786C48.2201 50.676 47.7093 50.4852 47.3082 50.1403C46.907 49.7955 46.6417 49.3191 46.5598 48.7964C46.5489 48.7245 46.5239 48.6554 46.4863 48.5931C46.4487 48.5308 46.3992 48.4766 46.3406 48.4334C46.2821 48.3903 46.2156 48.3591 46.1449 48.3416C46.0743 48.3242 46.0009 48.3208 45.929 48.3317C45.8571 48.3426 45.788 48.3676 45.7257 48.4052C45.6634 48.4428 45.6091 48.4923 45.566 48.5508C45.5228 48.6094 45.4916 48.6759 45.4742 48.7466C45.4567 48.8172 45.4534 48.8906 45.4643 48.9625C45.5874 49.7465 45.9856 50.461 46.5874 50.9783C47.1893 51.4956 47.9556 51.7818 48.7492 51.7857C48.896 51.7857 49.0368 51.7274 49.1406 51.6236C49.2444 51.5198 49.3027 51.379 49.3027 51.2321C49.3027 51.0853 49.2444 50.9445 49.1406 50.8407C49.0368 50.7369 48.896 50.6786 48.7492 50.6786Z" fill="black"/>
<path d="M48.7492 50.6786L48.7425 52.0625H48.7492V50.6786ZM46.5598 48.7964L45.1915 49.0038L45.1925 49.0107L46.5598 48.7964ZM45.4643 48.9625L44.0959 49.1699L44.0971 49.1773L45.4643 48.9625ZM48.7492 51.7857L48.7423 53.1696H48.7492V51.7857ZM48.7559 49.2947C48.5556 49.2937 48.3622 49.2215 48.2103 49.0909L46.406 51.1898C47.0564 51.749 47.8847 52.0583 48.7425 52.0625L48.7559 49.2947ZM48.2103 49.0909C48.0585 48.9603 47.958 48.78 47.927 48.5821L45.1925 49.0107C45.3254 49.8581 45.7555 50.6306 46.406 51.1898L48.2103 49.0909ZM47.9281 48.589C47.8899 48.3374 47.8026 48.0957 47.6711 47.8779L45.3015 49.3084C45.2452 49.2151 45.2078 49.1116 45.1915 49.0038L47.9281 48.589ZM47.6711 47.8779C47.5395 47.66 47.3664 47.4702 47.1615 47.3192L45.5198 49.5476C45.432 49.483 45.3579 49.4017 45.3015 49.3084L47.6711 47.8779ZM47.1615 47.3192C46.9566 47.1683 46.724 47.0591 46.4769 46.9981L45.8129 49.6851C45.7071 49.659 45.6075 49.6123 45.5198 49.5476L47.1615 47.3192ZM46.4769 46.9981C46.2298 46.937 45.9732 46.9253 45.7216 46.9634L46.1364 49.7C46.0287 49.7163 45.9187 49.7113 45.8129 49.6851L46.4769 46.9981ZM45.7216 46.9634C45.47 47.0015 45.2283 47.0889 45.0104 47.2204L46.4409 49.5899C46.3476 49.6463 46.2441 49.6837 46.1364 49.7L45.7216 46.9634ZM45.0104 47.2204C44.7926 47.3519 44.6027 47.5251 44.4518 47.73L46.6802 49.3717C46.6155 49.4594 46.5343 49.5336 46.4409 49.5899L45.0104 47.2204ZM44.4518 47.73C44.3008 47.9349 44.1917 48.1675 44.1307 48.4146L46.8177 49.0785C46.7916 49.1843 46.7448 49.284 46.6802 49.3717L44.4518 47.73ZM44.1307 48.4146C44.0696 48.6616 44.0578 48.9183 44.096 49.1699L46.8326 48.7551C46.8489 48.8628 46.8438 48.9727 46.8177 49.0785L44.1307 48.4146ZM44.0971 49.1773C44.2713 50.2859 44.8343 51.2964 45.6854 52.0279L47.4895 49.9287C47.1368 49.6257 46.9036 49.207 46.8314 48.7477L44.0971 49.1773ZM45.6854 52.0279C46.5365 52.7593 47.6201 53.1641 48.7423 53.1696L48.756 50.4018C48.291 50.3995 47.8421 50.2318 47.4895 49.9287L45.6854 52.0279ZM48.7492 53.1696C49.263 53.1696 49.7558 52.9655 50.1192 52.6022L48.162 50.645C48.3177 50.4893 48.5289 50.4018 48.7492 50.4018V53.1696ZM50.1192 52.6022C50.4825 52.2388 50.6867 51.746 50.6867 51.2321H47.9188C47.9188 51.0119 48.0063 50.8007 48.162 50.645L50.1192 52.6022ZM50.6867 51.2321C50.6867 50.7183 50.4825 50.2255 50.1192 49.8621L48.162 51.8193C48.0063 51.6636 47.9188 51.4524 47.9188 51.2321H50.6867ZM50.1192 49.8621C49.7558 49.4988 49.263 49.2946 48.7492 49.2946V52.0625C48.5289 52.0625 48.3177 51.975 48.162 51.8193L50.1192 49.8621Z" fill="white" mask="url(#path-4-outside-1_781_99)"/>
<path d="M46.536 48.0491C47.2239 48.0491 47.7815 47.4915 47.7815 46.8036C47.7815 46.1157 47.2239 45.558 46.536 45.558C45.8481 45.558 45.2905 46.1157 45.2905 46.8036C45.2905 47.4915 45.8481 48.0491 46.536 48.0491Z" fill="black" stroke="white" stroke-width="1.38393"/>
</g>
<path d="M12.2522 44.4802C12.3275 44.6308 12.4208 44.7709 12.5295 44.8984H9.48794C9.36412 44.8984 9.24063 44.9207 9.12415 44.9648C9.00763 45.0089 8.89903 45.0746 8.80555 45.16C8.71197 45.2456 8.6351 45.3496 8.58171 45.4674C8.52825 45.5854 8.5 45.7137 8.5 45.8445C8.5 45.9753 8.52825 46.1035 8.58171 46.2215C8.6351 46.3394 8.71197 46.4434 8.80555 46.5289C8.89903 46.6144 9.00764 46.6801 9.12415 46.7242C9.24063 46.7683 9.36412 46.7906 9.48794 46.7906H13.1938H13.6938V46.7357C14.7986 46.5845 15.677 46.1801 16.1934 45.4424L16.1935 45.4422C16.9571 44.3509 16.4689 43.0853 16.4656 43.0978L16.4624 43.0857C16.3589 42.6995 16.1412 42.3534 15.8404 42.0837C15.54 41.8144 15.1679 41.6309 14.7678 41.5488C14.3677 41.4668 13.9506 41.4883 13.5621 41.6117C13.1734 41.7352 12.8243 41.9571 12.5572 42.2582C12.2898 42.5596 12.1155 42.9284 12.0605 43.3243C12.0054 43.7204 12.0729 44.1213 12.2522 44.4802ZM17.5791 50.3314L17.5791 50.3313L17.5755 50.3262C16.9905 49.4868 15.9354 49.079 14.6111 48.984L14.5932 48.9828H14.5753H12.3991H12.3843L12.3695 48.9836C12.1314 48.9978 11.8996 49.0944 11.7242 49.2655C11.6401 49.3476 11.5719 49.4441 11.5235 49.5503C11.4751 49.4434 11.4065 49.3462 11.322 49.2637C11.1465 49.0925 10.9148 48.9959 10.6767 48.9818L10.6619 48.9809H10.6471H10.1303C10.007 48.9756 9.88312 48.9924 9.76525 49.031C9.64187 49.0715 9.52602 49.1355 9.42581 49.2213C9.3255 49.3073 9.24256 49.4137 9.18478 49.5356C9.12691 49.6577 9.0962 49.7914 9.0962 49.9279C9.0962 50.0644 9.12691 50.1981 9.18478 50.3202C9.24256 50.4421 9.3255 50.5485 9.42581 50.6344C9.52602 50.7203 9.64187 50.7843 9.76525 50.8248C9.88312 50.8634 10.007 50.8802 10.1303 50.8749H10.6471H10.6619L10.6767 50.874C10.9148 50.8599 11.1465 50.7633 11.322 50.5921C11.4061 50.5101 11.4743 50.4136 11.5227 50.3074C11.5711 50.4143 11.6396 50.5115 11.7242 50.594C11.8996 50.7652 12.1314 50.8618 12.3695 50.8759L12.3843 50.8768H12.3991H13.8285C13.6717 51.124 13.5694 51.4013 13.5316 51.6925C13.4812 52.0807 13.5483 52.4727 13.7227 52.8245C13.8969 53.1759 14.1696 53.4709 14.5058 53.682C14.8418 53.893 15.2307 54.014 15.6305 54.0353C16.0303 54.0567 16.4307 53.9781 16.7891 53.8054C17.1477 53.6326 17.454 53.3706 17.6702 53.0426C17.8816 52.7219 17.9978 52.3515 18.0028 51.9701C18.0593 51.3924 17.9084 50.8168 17.5791 50.3314ZM17.5977 46.0405C17.701 46.3263 17.8597 46.588 18.0629 46.8145H14.0256H14.0108L13.996 46.8154C13.7578 46.8295 13.5261 46.9261 13.3507 47.0973C13.3137 47.1333 13.2798 47.1722 13.2493 47.2135C13.2061 47.1551 13.1564 47.1019 13.1015 47.0549C13.0013 46.9691 12.8855 46.9051 12.7621 46.8646C12.6442 46.826 12.5203 46.8092 12.397 46.8145H10.4412H10.4264L10.4116 46.8154C10.1734 46.8295 9.94169 46.9261 9.76625 47.0973C9.58953 47.2697 9.48292 47.5063 9.48292 47.7615C9.48292 48.0167 9.58953 48.2533 9.76625 48.4257C9.94169 48.5969 10.1734 48.6935 10.4116 48.7076L10.4264 48.7085H10.4412H12.397C12.5203 48.7138 12.6442 48.697 12.7621 48.6584C12.8855 48.6179 13.0013 48.5539 13.1015 48.468C13.1564 48.421 13.2061 48.3679 13.2493 48.3095C13.2798 48.3508 13.3137 48.3897 13.3507 48.4257C13.5261 48.5969 13.7578 48.6935 13.996 48.7076L14.0108 48.7085H14.0256H18.7609H18.7791L18.7972 48.7072C20.3336 48.5954 21.5346 48.128 22.1943 47.1757L22.1988 47.1691L22.2031 47.1624C22.6543 46.4646 22.794 45.6271 22.5857 44.8306C22.4981 44.3939 22.2832 43.9924 21.9702 43.6674C21.6532 43.3382 21.2477 43.0997 20.8008 42.9728C20.3539 42.8459 19.8785 42.8342 19.4254 42.9385C18.9722 43.0428 18.5541 43.2603 18.219 43.5722C17.8836 43.8844 17.6438 44.28 17.5323 44.7179C17.4208 45.1562 17.4437 45.6145 17.5977 46.0405Z" fill="black" stroke="white"/>
<defs>
<filter id="filter0_d_781_99" x="0.551764" y="0.904663" width="60.8965" height="54.1057" filterUnits="userSpaceOnUse" color-interpolation-filters="sRGB">
<feFlood flood-opacity="0" result="BackgroundImageFix"/>
<feColorMatrix in="SourceAlpha" type="matrix" values="0 0 0 0 0 0 0 0 0 0 0 0 0 0 0 0 0 0 127 0" result="hardAlpha"/>
<feOffset dy="3.35253"/>
<feGaussianBlur stdDeviation="1.67627"/>
<feComposite in2="hardAlpha" operator="out"/>
<feColorMatrix type="matrix" values="0 0 0 0 0 0 0 0 0 0 0 0 0 0 0 0 0 0 0.25 0"/>
<feBlend mode="normal" in2="BackgroundImageFix" result="effect1_dropShadow_781_99"/>
<feBlend mode="normal" in="SourceGraphic" in2="effect1_dropShadow_781_99" result="shape"/>
</filter>
<filter id="filter1_d_781_99" x="37.4019" y="21.6161" width="22.6961" height="40.4169" filterUnits="userSpaceOnUse" color-interpolation-filters="sRGB">
<feFlood flood-opacity="0" result="BackgroundImageFix"/>
<feColorMatrix in="SourceAlpha" type="matrix" values="0 0 0 0 0 0 0 0 0 0 0 0 0 0 0 0 0 0 127 0" result="hardAlpha"/>
<feOffset dy="2.21429"/>
<feGaussianBlur stdDeviation="1.10714"/>
<feComposite in2="hardAlpha" operator="out"/>
<feColorMatrix type="matrix" values="0 0 0 0 0 0 0 0 0 0 0 0 0 0 0 0 0 0 0.25 0"/>
<feBlend mode="normal" in2="BackgroundImageFix" result="effect1_dropShadow_781_99"/>
<feBlend mode="normal" in="SourceGraphic" in2="effect1_dropShadow_781_99" result="shape"/>
</filter>
</defs>
</svg>
