<svg width="62" height="63" viewBox="0 0 62 63" fill="none" xmlns="http://www.w3.org/2000/svg">
<g filter="url(#filter0_d_781_91)">
<path d="M38.4562 6.05765L38.4491 6.04592L38.4417 6.03437C37.6416 4.78293 36.5394 3.75304 35.2365 3.03965C33.9337 2.32626 32.4722 1.95233 30.9868 1.95233C29.5014 1.95233 28.0399 2.32626 26.737 3.03965C25.4342 3.75304 24.3319 4.78293 23.5318 6.03437L23.5245 6.04592L23.5174 6.05765L6.07482 34.9813L6.07359 34.9834C5.36279 36.1681 4.97645 37.5191 4.95343 38.9005C4.9304 40.2819 5.2715 41.645 5.94242 42.8527L5.94236 42.8528L5.94831 42.8632C6.71265 44.2028 7.81899 45.3154 9.15426 46.0874C10.4889 46.8591 12.0045 47.2628 13.5461 47.2572H48.4241C49.9543 47.2725 51.4616 46.8845 52.7942 46.1321C54.1286 45.3788 55.2406 44.2869 56.0181 42.9665L56.0226 42.9588L56.0271 42.9509C56.7177 41.7306 57.0697 40.3479 57.0466 38.9459C57.0236 37.5448 56.6268 36.1753 55.8972 34.9789C55.8968 34.9781 55.8963 34.9774 55.8959 34.9766L38.4562 6.05765ZM30.9868 36.0664C30.7442 36.0664 30.507 35.9945 30.3053 35.8597C30.1036 35.725 29.9465 35.5335 29.8536 35.3094C29.7608 35.0854 29.7366 34.8388 29.7839 34.601C29.8312 34.3632 29.948 34.1447 30.1195 33.9732C30.291 33.8017 30.5095 33.6849 30.7475 33.6376C30.9854 33.5902 31.232 33.6145 31.4562 33.7073C31.6803 33.8002 31.8718 33.9573 32.0066 34.159C32.1413 34.3606 32.2132 34.5977 32.2132 34.8402C32.2132 35.1654 32.084 35.4772 31.854 35.7072C31.6241 35.9372 31.3121 36.0664 30.9868 36.0664ZM32.2132 28.0186C32.2132 28.3437 32.084 28.6556 31.854 28.8856C31.6241 29.1156 31.3121 29.2448 30.9868 29.2448C30.6615 29.2448 30.3495 29.1156 30.1195 28.8856C29.8895 28.6556 29.7603 28.3437 29.7603 28.0186V18.9231C29.7603 18.5979 29.8895 18.286 30.1195 18.0561C30.3495 17.8261 30.6615 17.6969 30.9868 17.6969C31.3121 17.6969 31.6241 17.8261 31.854 18.0561C32.084 18.286 32.2132 18.5979 32.2132 18.9231V28.0186Z" fill="#515151" stroke="white" stroke-width="2.09533"/>
</g>
<g filter="url(#filter1_d_781_91)">
<path d="M48.7508 22.308L48.7492 22.308C47.3918 22.3096 46.0905 22.8495 45.1307 23.8093C44.1709 24.7691 43.631 26.0704 43.6295 27.4278V27.4286V41.7587C42.3024 42.7712 41.3028 44.1564 40.7614 45.7412C40.1803 47.4419 40.1572 49.2837 40.6954 50.9984C41.2336 52.7132 42.305 54.2115 43.7537 55.2752C45.2024 56.3388 46.9528 56.9124 48.75 56.9124C50.5472 56.9124 52.2976 56.3388 53.7463 55.2752C55.195 54.2115 56.2664 52.7132 56.8046 50.9984C57.3428 49.2837 57.3197 47.4419 56.7386 45.7412C56.1972 44.1564 55.1976 42.7712 53.8705 41.7587L53.8705 27.4286L53.8705 27.4278C53.869 26.0704 53.3291 24.7691 52.3693 23.8093C51.4095 22.8495 50.1082 22.3096 48.7508 22.308ZM54.7009 48.4636L54.7009 48.465C54.702 49.4986 54.4339 50.5146 53.923 51.413C53.4121 52.3115 52.676 53.0614 51.7871 53.5889C50.8983 54.1164 49.8875 54.4033 48.8541 54.4213C47.8207 54.4394 46.8004 54.188 45.8937 53.6919C44.987 53.1959 44.2251 52.4722 43.6831 51.5921C43.141 50.7121 42.8376 49.7061 42.8025 48.6731C42.7675 47.6402 43.0021 46.6159 43.4832 45.7011C43.9643 44.7864 44.6754 44.0128 45.5464 43.4564L45.5476 43.4556C45.7232 43.343 45.8676 43.188 45.9678 43.005C46.0679 42.822 46.1204 42.6167 46.1205 42.4081V42.4077V27.4286C46.1205 26.7312 46.3976 26.0624 46.8907 25.5693C47.3838 25.0761 48.0526 24.7991 48.75 24.7991C49.4474 24.7991 50.1162 25.0761 50.6093 25.5693C51.1024 26.0624 51.3795 26.7312 51.3795 27.4286L51.3795 42.4066L51.3795 42.407C51.3796 42.6156 51.4321 42.8209 51.5322 43.0039C51.6324 43.1869 51.7768 43.3419 51.9524 43.4545L51.9547 43.4559C52.7971 43.9919 53.4905 44.7318 53.9706 45.6073C54.4507 46.4827 54.7019 47.4652 54.7009 48.4636Z" fill="black" stroke="white" stroke-width="1.38393"/>
<path d="M48.335 43.617V39.7455H49.1653V43.617C49.1653 43.617 49.1653 43.6171 49.1653 43.6172C49.1653 43.8259 49.2177 44.0313 49.3178 44.2145C49.4179 44.3978 49.5625 44.5529 49.7383 44.6657L49.7385 44.6659L50.7576 45.3191L50.7599 45.3206C51.2891 45.6568 51.7248 46.1212 52.0265 46.6707C52.3283 47.2202 52.4864 47.8371 52.4862 48.464L52.4862 48.4653C52.4872 49.1145 52.319 49.7528 51.9982 50.3172C51.6775 50.8816 51.2152 51.3527 50.6569 51.6841C50.0987 52.0155 49.4637 52.1957 48.8146 52.207C48.1655 52.2183 47.5246 52.0603 46.9552 51.7485C46.3857 51.4368 45.9073 50.982 45.5671 50.4291C45.2269 49.8762 45.0367 49.2441 45.015 48.5953C44.9934 47.9465 45.1413 47.3032 45.4439 46.7289C45.7466 46.1545 46.1937 45.669 46.7412 45.32L46.7426 45.3191L47.7618 44.6659L47.762 44.6657C47.9378 44.5529 48.0824 44.3978 48.1825 44.2145C48.2826 44.0313 48.335 43.8259 48.335 43.6172C48.335 43.6171 48.335 43.617 48.335 43.617ZM52.1007 43.2227L51.6558 42.9376V27.4285C51.6558 26.6578 51.3496 25.9185 50.8046 25.3735C50.2596 24.8285 49.5204 24.5223 48.7496 24.5223C47.9788 24.5223 47.2396 24.8285 46.6946 25.3735C46.1495 25.9185 45.8433 26.6578 45.8433 27.4285V42.9376L45.3985 43.2227C45.3984 43.2227 45.3984 43.2228 45.3984 43.2228C44.2629 43.9477 43.3931 45.0212 42.9195 46.2824C42.4459 47.5435 42.3939 48.9243 42.7715 50.2174C43.1491 51.5106 43.9359 52.6465 45.0137 53.4546C46.0916 54.2627 47.4024 54.6996 48.7496 54.6996C50.0968 54.6996 51.4076 54.2627 52.4854 53.4546C53.5633 52.6465 54.35 51.5106 54.7276 50.2174C55.1052 48.9243 55.0533 47.5435 54.5797 46.2824C54.106 45.0212 53.2362 43.9476 52.1007 43.2227ZM48.3344 27.4285C48.3344 27.3184 48.3781 27.2128 48.456 27.135C48.5339 27.0571 48.6395 27.0134 48.7496 27.0134C48.8597 27.0134 48.9653 27.0571 49.0432 27.135C49.121 27.2128 49.1648 27.3184 49.1648 27.4285V28.405C48.8853 28.4362 48.6232 28.5614 48.4224 28.7621C48.3912 28.7933 48.3619 28.826 48.3344 28.86V27.4285ZM48.3344 32.1814V30.4257C48.3619 30.4597 48.3912 30.4924 48.4224 30.5236C48.6232 30.7243 48.8853 30.8494 49.1648 30.8807V31.7264C48.8853 31.7577 48.6232 31.8828 48.4224 32.0835C48.3912 32.1147 48.3619 32.1474 48.3344 32.1814ZM48.3344 35.5028V33.7471C48.3619 33.7811 48.3912 33.8138 48.4224 33.845C48.6232 34.0457 48.8853 34.1709 49.1648 34.2021V35.0479C48.8853 35.0791 48.6232 35.2042 48.4224 35.405C48.3912 35.4362 48.3619 35.4688 48.3344 35.5028ZM48.3344 37.2544V37.0686C48.3619 37.1026 48.3912 37.1352 48.4224 37.1664C48.4536 37.1976 48.4863 37.227 48.5203 37.2544H48.3344Z" fill="black" stroke="white" stroke-width="1.38393"/>
<mask id="path-4-outside-1_781_91" maskUnits="userSpaceOnUse" x="43.458" y="46.3254" width="8" height="7" fill="black">
<rect fill="white" x="43.458" y="46.3254" width="8" height="7"/>
<path d="M48.7492 50.6786C48.2201 50.676 47.7093 50.4852 47.3082 50.1403C46.907 49.7955 46.6417 49.3191 46.5598 48.7964C46.5489 48.7245 46.5239 48.6554 46.4863 48.5931C46.4487 48.5308 46.3992 48.4766 46.3406 48.4334C46.2821 48.3903 46.2156 48.3591 46.1449 48.3416C46.0743 48.3242 46.0009 48.3208 45.929 48.3317C45.8571 48.3426 45.788 48.3676 45.7257 48.4052C45.6634 48.4428 45.6091 48.4923 45.566 48.5508C45.5228 48.6094 45.4916 48.6759 45.4742 48.7466C45.4567 48.8172 45.4534 48.8906 45.4643 48.9625C45.5874 49.7465 45.9856 50.461 46.5874 50.9783C47.1893 51.4956 47.9556 51.7818 48.7492 51.7857C48.896 51.7857 49.0368 51.7274 49.1406 51.6236C49.2444 51.5198 49.3027 51.379 49.3027 51.2321C49.3027 51.0853 49.2444 50.9445 49.1406 50.8407C49.0368 50.7369 48.896 50.6786 48.7492 50.6786Z"/>
</mask>
<path d="M48.7492 50.6786C48.2201 50.676 47.7093 50.4852 47.3082 50.1403C46.907 49.7955 46.6417 49.3191 46.5598 48.7964C46.5489 48.7245 46.5239 48.6554 46.4863 48.5931C46.4487 48.5308 46.3992 48.4766 46.3406 48.4334C46.2821 48.3903 46.2156 48.3591 46.1449 48.3416C46.0743 48.3242 46.0009 48.3208 45.929 48.3317C45.8571 48.3426 45.788 48.3676 45.7257 48.4052C45.6634 48.4428 45.6091 48.4923 45.566 48.5508C45.5228 48.6094 45.4916 48.6759 45.4742 48.7466C45.4567 48.8172 45.4534 48.8906 45.4643 48.9625C45.5874 49.7465 45.9856 50.461 46.5874 50.9783C47.1893 51.4956 47.9556 51.7818 48.7492 51.7857C48.896 51.7857 49.0368 51.7274 49.1406 51.6236C49.2444 51.5198 49.3027 51.379 49.3027 51.2321C49.3027 51.0853 49.2444 50.9445 49.1406 50.8407C49.0368 50.7369 48.896 50.6786 48.7492 50.6786Z" fill="black"/>
<path d="M48.7492 50.6786L48.7425 52.0625H48.7492V50.6786ZM46.5598 48.7964L45.1915 49.0038L45.1925 49.0107L46.5598 48.7964ZM45.4643 48.9625L44.0959 49.1699L44.0971 49.1773L45.4643 48.9625ZM48.7492 51.7857L48.7423 53.1696H48.7492V51.7857ZM48.7559 49.2947C48.5556 49.2937 48.3622 49.2215 48.2103 49.0909L46.406 51.1898C47.0564 51.749 47.8847 52.0583 48.7425 52.0625L48.7559 49.2947ZM48.2103 49.0909C48.0585 48.9603 47.958 48.78 47.927 48.5821L45.1925 49.0107C45.3254 49.8581 45.7555 50.6306 46.406 51.1898L48.2103 49.0909ZM47.9281 48.589C47.8899 48.3374 47.8026 48.0957 47.6711 47.8779L45.3015 49.3084C45.2452 49.2151 45.2078 49.1116 45.1915 49.0038L47.9281 48.589ZM47.6711 47.8779C47.5395 47.66 47.3664 47.4702 47.1615 47.3192L45.5198 49.5476C45.432 49.483 45.3579 49.4017 45.3015 49.3084L47.6711 47.8779ZM47.1615 47.3192C46.9566 47.1683 46.724 47.0591 46.4769 46.9981L45.8129 49.6851C45.7071 49.659 45.6075 49.6123 45.5198 49.5476L47.1615 47.3192ZM46.4769 46.9981C46.2298 46.937 45.9732 46.9253 45.7216 46.9634L46.1364 49.7C46.0287 49.7163 45.9187 49.7113 45.8129 49.6851L46.4769 46.9981ZM45.7216 46.9634C45.47 47.0015 45.2283 47.0889 45.0104 47.2204L46.4409 49.5899C46.3476 49.6463 46.2441 49.6837 46.1364 49.7L45.7216 46.9634ZM45.0104 47.2204C44.7926 47.3519 44.6027 47.5251 44.4518 47.73L46.6802 49.3717C46.6155 49.4594 46.5343 49.5336 46.4409 49.5899L45.0104 47.2204ZM44.4518 47.73C44.3008 47.9349 44.1917 48.1675 44.1307 48.4146L46.8177 49.0785C46.7916 49.1843 46.7448 49.284 46.6802 49.3717L44.4518 47.73ZM44.1307 48.4146C44.0696 48.6616 44.0578 48.9183 44.096 49.1699L46.8326 48.7551C46.8489 48.8628 46.8438 48.9727 46.8177 49.0785L44.1307 48.4146ZM44.0971 49.1773C44.2713 50.2859 44.8343 51.2964 45.6854 52.0279L47.4895 49.9287C47.1368 49.6257 46.9036 49.207 46.8314 48.7477L44.0971 49.1773ZM45.6854 52.0279C46.5365 52.7593 47.6201 53.1641 48.7423 53.1696L48.756 50.4018C48.291 50.3995 47.8421 50.2318 47.4895 49.9287L45.6854 52.0279ZM48.7492 53.1696C49.263 53.1696 49.7558 52.9655 50.1192 52.6022L48.162 50.645C48.3177 50.4893 48.5289 50.4018 48.7492 50.4018V53.1696ZM50.1192 52.6022C50.4825 52.2388 50.6867 51.746 50.6867 51.2321H47.9188C47.9188 51.0119 48.0063 50.8007 48.162 50.645L50.1192 52.6022ZM50.6867 51.2321C50.6867 50.7183 50.4825 50.2255 50.1192 49.8621L48.162 51.8193C48.0063 51.6636 47.9188 51.4524 47.9188 51.2321H50.6867ZM50.1192 49.8621C49.7558 49.4988 49.263 49.2946 48.7492 49.2946V52.0625C48.5289 52.0625 48.3177 51.975 48.162 51.8193L50.1192 49.8621Z" fill="white" mask="url(#path-4-outside-1_781_91)"/>
<path d="M46.536 48.0491C47.2239 48.0491 47.7815 47.4915 47.7815 46.8036C47.7815 46.1157 47.2239 45.558 46.536 45.558C45.8481 45.558 45.2905 46.1157 45.2905 46.8036C45.2905 47.4915 45.8481 48.0491 46.536 48.0491Z" fill="black" stroke="white" stroke-width="1.38393"/>
</g>
<path d="M12.1393 43.6591C11.8586 43.2497 11.3681 42.7329 10.6244 42.5756L10.6231 42.5753C9.8254 42.4044 8.80772 42.651 7.56678 43.4589C8.73782 44.3706 9.73098 44.7036 10.541 44.6011L12.1393 43.6591ZM12.1393 43.6591C11.8276 44.0398 11.2967 44.5047 10.5413 44.601L12.1393 43.6591ZM20.1909 51.4507L20.1909 51.4507L20.1881 51.4478C18.7975 50.0367 16.6426 49.1497 14.2952 48.9283C14.4803 48.0492 14.6745 46.754 14.5772 45.4776C14.824 45.5261 15.0886 45.5558 15.3676 45.5558C15.6989 45.5558 16.0406 45.5143 16.3966 45.4209L16.3977 45.4206C17.8949 45.0241 19.1304 43.7853 20.1055 41.9098L20.1056 41.9096C20.3144 41.5073 20.3312 41.0362 20.1371 40.6152C19.9494 40.2024 19.5831 39.8998 19.1418 39.7914L19.1418 39.7914L19.1397 39.7909C17.0825 39.2952 15.3396 39.4163 14.0561 40.2857L14.0553 40.2863C13.4696 40.6847 13.069 41.1766 12.7946 41.6644C12.3428 41.2824 11.7546 40.9411 11.0129 40.783C9.49757 40.4576 7.83725 41.0064 6.11786 42.2359C5.7404 42.5037 5.52411 42.9206 5.50124 43.3704L5.50117 43.3704L5.50088 43.3789C5.4855 43.8326 5.67154 44.2621 6.01403 44.5578L6.01603 44.5596C7.44581 45.7813 8.87205 46.4528 10.2536 46.4528C10.43 46.4528 10.6014 46.4411 10.7728 46.4176C11.5944 46.3129 12.2479 45.9791 12.7464 45.5991C12.7884 46.1459 12.7621 46.7244 12.7004 47.2748C12.6289 47.911 12.5129 48.487 12.4163 48.897C9.89982 49.0405 7.55625 49.9487 6.07882 51.4465C5.76415 51.7622 5.67779 52.2324 5.85034 52.635C6.01932 53.0293 6.40754 53.2989 6.8512 53.2989H19.4092C19.845 53.2989 20.2367 53.042 20.409 52.6376C20.5928 52.2241 20.4882 51.7573 20.1909 51.4507ZM13.1354 50.7058C14.5473 50.7058 15.8768 50.9822 16.9821 51.4689H9.2886C10.3939 50.9822 11.7235 50.7058 13.1354 50.7058ZM15.0852 41.805L15.0866 41.8041C15.529 41.5035 16.1244 41.3337 16.9038 41.3337C17.3122 41.3337 17.7616 41.3787 18.2554 41.4738C17.5135 42.7558 16.716 43.4408 15.9303 43.6497C15.1928 43.8451 14.5234 43.6095 14.092 43.3712C14.1957 42.8883 14.4553 42.2298 15.0852 41.805Z" fill="black" stroke="#EAE8DB"/>
<defs>
<filter id="filter0_d_781_91" x="0.551764" y="0.904663" width="60.8965" height="54.1057" filterUnits="userSpaceOnUse" color-interpolation-filters="sRGB">
<feFlood flood-opacity="0" result="BackgroundImageFix"/>
<feColorMatrix in="SourceAlpha" type="matrix" values="0 0 0 0 0 0 0 0 0 0 0 0 0 0 0 0 0 0 127 0" result="hardAlpha"/>
<feOffset dy="3.35253"/>
<feGaussianBlur stdDeviation="1.67627"/>
<feComposite in2="hardAlpha" operator="out"/>
<feColorMatrix type="matrix" values="0 0 0 0 0 0 0 0 0 0 0 0 0 0 0 0 0 0 0.25 0"/>
<feBlend mode="normal" in2="BackgroundImageFix" result="effect1_dropShadow_781_91"/>
<feBlend mode="normal" in="SourceGraphic" in2="effect1_dropShadow_781_91" result="shape"/>
</filter>
<filter id="filter1_d_781_91" x="37.4019" y="21.6161" width="22.6961" height="40.4169" filterUnits="userSpaceOnUse" color-interpolation-filters="sRGB">
<feFlood flood-opacity="0" result="BackgroundImageFix"/>
<feColorMatrix in="SourceAlpha" type="matrix" values="0 0 0 0 0 0 0 0 0 0 0 0 0 0 0 0 0 0 127 0" result="hardAlpha"/>
<feOffset dy="2.21429"/>
<feGaussianBlur stdDeviation="1.10714"/>
<feComposite in2="hardAlpha" operator="out"/>
<feColorMatrix type="matrix" values="0 0 0 0 0 0 0 0 0 0 0 0 0 0 0 0 0 0 0.25 0"/>
<feBlend mode="normal" in2="BackgroundImageFix" result="effect1_dropShadow_781_91"/>
<feBlend mode="normal" in="SourceGraphic" in2="effect1_dropShadow_781_91" result="shape"/>
</filter>
</defs>
</svg>
