<svg width="68" height="66" viewBox="0 0 68 66" fill="none" xmlns="http://www.w3.org/2000/svg">
<g filter="url(#filter0_d_781_109)">
<path d="M16.2373 35.807V37.0016L17.4065 36.7566C17.953 36.6422 18.5102 36.5864 19.0685 36.5905H19.0755L45.2265 36.5905L45.2334 36.5904C45.7918 36.5864 46.349 36.6422 46.8955 36.7566L48.0647 37.0016V35.807V28.149C48.0647 23.9287 46.388 19.8813 43.4036 16.8971C40.4192 13.9129 36.3715 12.2365 32.151 12.2365C27.9304 12.2365 23.8827 13.9129 20.8983 16.8971C17.9139 19.8813 16.2373 23.9287 16.2373 28.149V35.807ZM48.0001 17.0067L48.0005 17.0067C48.7532 17.0065 49.4749 16.7075 50.007 16.1753C50.0071 16.1753 50.0071 16.1752 50.0071 16.1752L52.8315 13.351C53.0995 13.0905 53.3134 12.7796 53.461 12.4362C53.6097 12.0899 53.688 11.7175 53.6913 11.3407C53.6946 10.9638 53.6228 10.5901 53.48 10.2413C53.3373 9.89249 53.1266 9.57562 52.8601 9.30915C52.5936 9.04268 52.2767 8.83195 51.9279 8.68925C51.5791 8.54656 51.2054 8.47475 50.8285 8.47803C50.4517 8.4813 50.0793 8.55959 49.733 8.70833C49.3896 8.85582 49.0788 9.06967 48.8183 9.33757L45.9936 12.162L45.9935 12.1621C45.5967 12.559 45.3265 13.0647 45.217 13.6151C45.1076 14.1656 45.1638 14.7361 45.3786 15.2547C45.5933 15.7732 45.957 16.2164 46.4236 16.5282C46.8903 16.8401 47.4389 17.0066 48.0001 17.0067ZM19.0755 38.3855C17.332 38.3855 15.6598 39.078 14.427 40.3108C13.1941 41.5436 12.5014 43.2157 12.5014 44.9591C12.5014 46.7026 13.1941 48.3746 14.427 49.6074C15.6598 50.8402 17.332 51.5328 19.0755 51.5328H45.2265C46.97 51.5328 48.6421 50.8402 49.875 49.6074C51.1079 48.3746 51.8005 46.7026 51.8005 44.9591C51.8005 43.2157 51.1079 41.5436 49.875 40.3108C48.6421 39.078 46.97 38.3855 45.2265 38.3855H19.0755ZM32.151 10.4414C32.9037 10.4414 33.6256 10.1424 34.1579 9.61021C34.6901 9.07797 34.9892 8.35609 34.9892 7.60337V3.86779C34.9892 3.11506 34.6901 2.39318 34.1579 1.86095C33.6256 1.32871 32.9037 1.02972 32.151 1.02972C31.3983 1.02972 30.6764 1.32871 30.1441 1.86095C29.6118 2.39318 29.3128 3.11506 29.3128 3.86779V7.60337C29.3128 8.35609 29.6118 9.07797 30.1441 9.61021C30.6764 10.1424 31.3983 10.4414 32.151 10.4414ZM14.2896 16.17C14.5501 16.4379 14.861 16.6518 15.2044 16.7993C15.5506 16.948 15.9231 17.0263 16.2999 17.0296C16.6768 17.0328 17.0505 16.961 17.3993 16.8183C17.7481 16.6756 18.065 16.4649 18.3315 16.1984C18.5979 15.932 18.8087 15.6151 18.9514 15.2663C19.0941 14.9175 19.1659 14.5438 19.1627 14.1669C19.1594 13.7901 19.0811 13.4177 18.9323 13.0714C18.7848 12.728 18.5709 12.4171 18.303 12.1566L15.4837 9.33764C15.2232 9.06971 14.9124 8.85583 14.5689 8.70833C14.2227 8.55959 13.8503 8.4813 13.4734 8.47803C13.0966 8.47475 12.7228 8.54656 12.374 8.68925C12.0252 8.83195 11.7084 9.04268 11.4419 9.30915C11.1754 9.57562 10.9646 9.89249 10.8219 10.2413C10.6792 10.5901 10.6074 10.9638 10.6107 11.3407C10.6139 11.7175 10.6922 12.0899 10.841 12.4362C10.9885 12.7796 11.2024 13.0904 11.4703 13.3509L14.2896 16.17ZM11.6038 27.1788H7.86793C7.11521 27.1788 6.39331 27.4777 5.86104 28.01C5.32876 28.5422 5.02972 29.2641 5.02972 30.0168C5.02972 30.7696 5.32876 31.4914 5.86104 32.0237C6.39331 32.5559 7.11521 32.8549 7.86793 32.8549H11.6038C12.3565 32.8549 13.0784 32.5559 13.6107 32.0237C14.1429 31.4914 14.442 30.7696 14.442 30.0168C14.442 29.2641 14.1429 28.5422 13.6107 28.01C13.0784 27.4777 12.3565 27.1788 11.6038 27.1788ZM56.434 27.1788H52.6982C51.9455 27.1788 51.2236 27.4777 50.6913 28.01C50.159 28.5422 49.86 29.2641 49.86 30.0168C49.86 30.7696 50.159 31.4914 50.6913 32.0237C51.2236 32.5559 51.9455 32.8549 52.6982 32.8549H56.434C57.1867 32.8549 57.9086 32.5559 58.4409 32.0237C58.9732 31.4914 59.2722 30.7696 59.2722 30.0168C59.2722 29.2641 58.9732 28.5422 58.4409 28.01C57.9086 27.4777 57.1867 27.1788 56.434 27.1788Z" fill="#515151" stroke="white" stroke-width="1.94056"/>
</g>
<g filter="url(#filter1_d_781_109)">
<path d="M53.1327 55.14C51.7475 55.1347 50.4206 54.582 49.4412 53.6024C48.4617 52.6228 47.9091 51.2957 47.9038 49.9103C47.9038 47.4363 51.5238 40.859 52.2478 39.5516C52.3453 39.4064 52.477 39.2874 52.6313 39.2052C52.7856 39.1229 52.9578 39.0798 53.1327 39.0798C53.3076 39.0798 53.4798 39.1229 53.6341 39.2052C53.7884 39.2874 53.9201 39.4064 54.0176 39.5516C54.7416 40.859 58.3616 47.4363 58.3616 49.9103C58.3563 51.2957 57.8037 52.6228 56.8242 53.6024C55.8448 54.582 54.5179 55.1347 53.1327 55.14ZM53.1327 42.1664C51.697 44.5813 50.6134 47.189 49.9149 49.9103C49.9149 50.7639 50.2539 51.5824 50.8574 52.186C51.4608 52.7895 52.2793 53.1286 53.1327 53.1286C53.9861 53.1286 54.8046 52.7895 55.408 52.186C56.0115 51.5824 56.3505 50.7639 56.3505 49.9103C55.652 47.189 54.5684 44.5813 53.1327 42.1664ZM47.0994 41.0601C46.0326 41.0601 45.0095 40.6363 44.2552 39.8819C43.5009 39.1275 43.0771 38.1043 43.0771 37.0373C43.0771 35.207 45.6916 30.4399 46.2145 29.4946C46.312 29.3494 46.4437 29.2304 46.598 29.1481C46.7523 29.0658 46.9245 29.0228 47.0994 29.0228C47.2742 29.0228 47.4464 29.0658 47.6007 29.1481C47.7551 29.2304 47.8868 29.3494 47.9843 29.4946C48.5071 30.4399 51.1216 35.207 51.1216 37.0373C51.1216 38.1043 50.6978 39.1275 49.9435 39.8819C49.1892 40.6363 48.1661 41.0601 47.0994 41.0601ZM47.0994 32.1295C46.1976 33.6607 45.5203 35.3136 45.0883 37.0373C45.0883 37.5708 45.3001 38.0824 45.6773 38.4596C46.0545 38.8368 46.566 39.0487 47.0994 39.0487C47.6328 39.0487 48.1443 38.8368 48.5214 38.4596C48.8986 38.0824 49.1105 37.5708 49.1105 37.0373C48.6784 35.3136 48.0011 33.6607 47.0994 32.1295ZM57.1549 37.0373C56.0882 37.0373 55.0651 36.6135 54.3108 35.8591C53.5565 35.1047 53.1327 34.0814 53.1327 33.0145C53.1327 31.1841 55.7472 26.4171 56.27 25.4717C56.3675 25.3265 56.4992 25.2076 56.6536 25.1253C56.8079 25.043 56.9801 25 57.1549 25C57.3298 25 57.502 25.043 57.6563 25.1253C57.8106 25.2076 57.9423 25.3265 58.0398 25.4717C58.5627 26.4171 61.1771 31.1841 61.1771 33.0145C61.1771 34.0814 60.7534 35.1047 59.9991 35.8591C59.2448 36.6135 58.2217 37.0373 57.1549 37.0373ZM57.1549 28.1067C56.2532 29.6379 55.5759 31.2907 55.1438 33.0145C55.1438 33.548 55.3557 34.0596 55.7329 34.4368C56.11 34.814 56.6215 35.0259 57.1549 35.0259C57.6883 35.0259 58.1998 34.814 58.577 34.4368C58.9542 34.0596 59.166 33.548 59.166 33.0145C58.734 31.2907 58.0567 29.6379 57.1549 28.1067Z" fill="black"/>
<path d="M53.1279 56.39V56.39L53.1375 56.39C54.8526 56.3834 56.4955 55.6991 57.7082 54.4862C58.9209 53.2734 59.605 51.6303 59.6116 49.9151V49.9103C59.6116 49.0608 59.3178 48.0113 58.9622 47.0126C58.5925 45.9741 58.0986 44.8384 57.5923 43.7616C56.5783 41.6054 55.4757 39.6044 55.1111 38.946L55.0852 38.8992L55.0554 38.8548C54.8436 38.5394 54.5574 38.2809 54.2221 38.1021C53.8868 37.9234 53.5127 37.8299 53.1327 37.8299C52.8417 37.8299 52.5541 37.8847 52.2847 37.9907C52.3421 37.6783 52.3716 37.3594 52.3716 37.0373C52.3716 36.3522 52.1428 35.5393 51.8839 34.8043C51.6116 34.0311 51.2497 33.193 50.8815 32.4049C50.1439 30.8263 49.3427 29.3679 49.0781 28.8895L49.052 28.8425L49.022 28.7978C48.8102 28.4823 48.5241 28.2238 48.1888 28.0451C47.8535 27.8663 47.4794 27.7728 47.0994 27.7728C46.7194 27.7728 46.3453 27.8663 46.01 28.0451C45.6747 28.2238 45.3885 28.4823 45.1767 28.7978L45.1467 28.8425L45.1207 28.8895C44.856 29.3679 44.0549 30.8263 43.3173 32.4049C42.949 33.193 42.5871 34.0311 42.3148 34.8043C42.0559 35.5393 41.8271 36.3522 41.8271 37.0373C41.8271 38.4357 42.3826 39.7769 43.3713 40.7657C44.36 41.7546 45.701 42.3102 47.0994 42.3102C48.0331 42.3102 48.9412 42.0625 49.736 41.6035C49.3945 42.2697 49.0284 43.0061 48.6731 43.7616C48.1668 44.8384 47.6729 45.9741 47.3032 47.0126C46.9476 48.0113 46.6538 49.0608 46.6538 49.9103L46.6538 49.9151C46.6604 51.6303 47.3445 53.2734 48.5572 54.4862C49.7699 55.6991 51.4128 56.3834 53.1279 56.39ZM55.2323 24.775L55.2023 24.8196L55.1762 24.8667C54.9116 25.3451 54.1104 26.8035 53.3728 28.3821C53.0046 29.1702 52.6427 30.0083 52.3704 30.7814C52.1115 31.5164 51.8827 32.3293 51.8827 33.0145C51.8827 34.4129 52.4381 35.754 53.4268 36.7429C54.4156 37.7318 55.7566 38.2873 57.1549 38.2873C58.5533 38.2873 59.8943 37.7318 60.883 36.7429C61.8717 35.754 62.4272 34.4129 62.4272 33.0145C62.4272 32.3293 62.1984 31.5164 61.9395 30.7814C61.6672 30.0083 61.3053 29.1702 60.937 28.3821C60.1994 26.8035 59.3983 25.3451 59.1336 24.8667L59.1076 24.8196L59.0776 24.775C58.8658 24.4595 58.5796 24.201 58.2443 24.0223C57.909 23.8435 57.5349 23.75 57.1549 23.75C56.7749 23.75 56.4008 23.8435 56.0655 24.0223C55.7302 24.201 55.4441 24.4595 55.2323 24.775ZM51.7413 51.3022C51.4055 50.9663 51.2036 50.5216 51.1699 50.0509C51.6483 48.2343 52.3061 46.4716 53.1327 44.7886C53.9593 46.4716 54.6171 48.2343 55.0955 50.0509C55.0618 50.5216 54.8599 50.9663 54.5241 51.3022C54.155 51.6713 53.6545 51.8786 53.1327 51.8786C52.6109 51.8786 52.1104 51.6713 51.7413 51.3022ZM46.5612 37.5758C46.4472 37.4617 46.373 37.3151 46.3478 37.1577C46.5476 36.3962 46.7988 35.6501 47.0994 34.9244C47.4 35.6501 47.6512 36.3962 47.8509 37.1577C47.8257 37.3151 47.7516 37.4617 47.6375 37.5758C47.4947 37.7186 47.3012 37.7987 47.0994 37.7987C46.8976 37.7987 46.704 37.7186 46.5612 37.5758ZM56.6168 33.553C56.5027 33.4389 56.4286 33.2923 56.4034 33.1349C56.6031 32.3734 56.8543 31.6273 57.1549 30.9016C57.4555 31.6273 57.7067 32.3734 57.9065 33.1349C57.8813 33.2923 57.8071 33.4389 57.693 33.553C57.5503 33.6958 57.3567 33.7759 57.1549 33.7759C56.9531 33.7759 56.7596 33.6958 56.6168 33.553Z" stroke="white" stroke-width="2.5"/>
</g>
<defs>
<filter id="filter0_d_781_109" x="0.954675" y="0.0594482" width="62.3924" height="58.6534" filterUnits="userSpaceOnUse" color-interpolation-filters="sRGB">
<feFlood flood-opacity="0" result="BackgroundImageFix"/>
<feColorMatrix in="SourceAlpha" type="matrix" values="0 0 0 0 0 0 0 0 0 0 0 0 0 0 0 0 0 0 127 0" result="hardAlpha"/>
<feOffset dy="3.1049"/>
<feGaussianBlur stdDeviation="1.55245"/>
<feComposite in2="hardAlpha" operator="out"/>
<feColorMatrix type="matrix" values="0 0 0 0 0 0 0 0 0 0 0 0 0 0 0 0 0 0 0.25 0"/>
<feBlend mode="normal" in2="BackgroundImageFix" result="effect1_dropShadow_781_109"/>
<feBlend mode="normal" in="SourceGraphic" in2="effect1_dropShadow_781_109" result="shape"/>
</filter>
<filter id="filter1_d_781_109" x="36.5771" y="22.5" width="31.0996" height="43.14" filterUnits="userSpaceOnUse" color-interpolation-filters="sRGB">
<feFlood flood-opacity="0" result="BackgroundImageFix"/>
<feColorMatrix in="SourceAlpha" type="matrix" values="0 0 0 0 0 0 0 0 0 0 0 0 0 0 0 0 0 0 127 0" result="hardAlpha"/>
<feOffset dy="4"/>
<feGaussianBlur stdDeviation="2"/>
<feComposite in2="hardAlpha" operator="out"/>
<feColorMatrix type="matrix" values="0 0 0 0 0 0 0 0 0 0 0 0 0 0 0 0 0 0 0.25 0"/>
<feBlend mode="normal" in2="BackgroundImageFix" result="effect1_dropShadow_781_109"/>
<feBlend mode="normal" in="SourceGraphic" in2="effect1_dropShadow_781_109" result="shape"/>
</filter>
</defs>
</svg>
