<svg width="66" height="68" viewBox="0 0 66 68" fill="none" xmlns="http://www.w3.org/2000/svg">
<g filter="url(#filter0_d_781_68)">
<path d="M48.9988 17.0357C49.4941 17.0356 49.9691 16.8388 50.3193 16.4885M48.9988 17.0357L51.2033 17.3723L54.0262 14.5496C54.3199 14.2637 54.5544 13.9227 54.7162 13.5461C54.8796 13.1657 54.9657 12.7566 54.9693 12.3426C54.9729 11.9286 54.894 11.5181 54.7372 11.1349C54.5804 10.7517 54.3489 10.4037 54.0561 10.1109C53.7634 9.81821 53.4153 9.58672 53.0321 9.42997C52.6489 9.27322 52.2384 9.19434 51.8244 9.19794C51.4105 9.20153 51.0013 9.28753 50.621 9.45092C50.2443 9.6127 49.9033 9.84715 49.6174 10.1408L46.7943 12.9636L46.7942 12.9638C46.3583 13.3998 46.0614 13.9552 45.9412 14.5599C45.8209 15.1646 45.8827 15.7914 46.1186 16.3611C46.3546 16.9307 46.7541 17.4175 47.2667 17.7601C47.7793 18.1027 48.382 18.2856 48.9985 18.2857H48.999C49.8258 18.2855 50.6186 17.957 51.2032 17.3724L50.3193 16.4885M48.9988 17.0357C48.6294 17.0356 48.2683 16.926 47.9612 16.7208M48.9988 17.0357L47.9612 16.7208M50.3193 16.4885L53.1491 13.6589C53.3275 13.4866 53.4698 13.2805 53.5677 13.0527C53.6656 12.8248 53.7172 12.5797 53.7193 12.3317C53.7215 12.0837 53.6742 11.8378 53.5803 11.6083C53.4864 11.3787 53.3477 11.1702 53.1723 10.9949C52.9969 10.8195 52.7884 10.6808 52.5588 10.5869C52.3293 10.493 52.0833 10.4457 51.8353 10.4479C51.5873 10.45 51.3422 10.5016 51.1143 10.5995C50.8864 10.6973 50.6803 10.8396 50.508 11.018L50.3193 16.4885ZM47.1672 14.8038C47.2392 14.4415 47.417 14.1088 47.6782 13.8476L47.1672 14.8038ZM47.1672 14.8038C47.0951 15.166 47.1321 15.5415 47.2735 15.8827M47.1672 14.8038L47.2735 15.8827M47.2735 15.8827C47.4148 16.2239 47.6542 16.5156 47.9612 16.7208M47.2735 15.8827L47.9612 16.7208M16.9571 36.8052V38.3442L18.4634 38.0287C18.9904 37.9183 19.5276 37.8646 20.066 37.8684V37.8685H20.075L46.225 37.8685L46.234 37.8684C46.7724 37.8646 47.3096 37.9183 47.8366 38.0287L49.3429 38.3442V36.8052V29.1477C49.3429 24.8534 47.6368 20.735 44.6 17.6985C41.5633 14.662 37.4446 12.9562 33.15 12.9562C28.8554 12.9562 24.7367 14.662 21.7 17.6985C18.6632 20.735 16.9571 24.8534 16.9571 29.1477V36.8052ZM20.075 39.1038C18.2574 39.1038 16.5141 39.8258 15.2288 41.111C13.9435 42.3962 13.2214 44.1393 13.2214 45.9569C13.2214 47.7745 13.9435 49.5176 15.2288 50.8028C16.5141 52.088 18.2574 52.81 20.075 52.81H46.225C48.0426 52.81 49.7859 52.088 51.0712 50.8028C52.3565 49.5176 53.0786 47.7745 53.0786 45.9569C53.0786 44.1393 52.3565 42.3962 51.0712 41.111C49.7859 39.8258 48.0426 39.1038 46.225 39.1038H20.075ZM33.15 11.7208C33.9769 11.7208 34.7699 11.3923 35.3546 10.8077C35.9393 10.223 36.2679 9.42997 36.2679 8.60308V4.86769C36.2679 4.0408 35.9393 3.24779 35.3546 2.66311C34.7699 2.07844 33.9769 1.75 33.15 1.75C32.3231 1.75 31.5301 2.07844 30.9454 2.66311C30.3607 3.24778 30.0321 4.04079 30.0321 4.86769V8.60308C30.0321 9.42998 30.3607 10.223 30.9454 10.8077C31.5301 11.3923 32.3231 11.7208 33.15 11.7208ZM15.0901 17.3657C15.376 17.6593 15.717 17.8938 16.0936 18.0556C16.474 18.2189 16.8831 18.3049 17.2971 18.3085C17.7111 18.3121 18.1216 18.2333 18.5048 18.0765C18.8879 17.9198 19.2361 17.6883 19.5288 17.3955C19.8216 17.1028 20.0531 16.7547 20.2099 16.3716C20.3666 15.9884 20.4455 15.5779 20.4419 15.1639C20.4383 14.7499 20.3523 14.3408 20.1889 13.9604C20.0271 13.5838 19.7926 13.2428 19.499 12.957L16.6826 10.1408C16.3967 9.84714 16.0557 9.6127 15.679 9.45092C15.2987 9.28753 14.8895 9.20153 14.4756 9.19794C14.0616 9.19434 13.6511 9.27322 13.2679 9.42997C12.8847 9.58672 12.5366 9.81821 12.2439 10.1109C11.9511 10.4037 11.7196 10.7518 11.5628 11.1349C11.406 11.5181 11.3271 11.9286 11.3307 12.3426C11.3343 12.7566 11.4204 13.1657 11.5838 13.5461C11.7456 13.9227 11.98 14.2637 12.2737 14.5496L15.0901 17.3657ZM12.6036 27.8977H8.86786C8.04099 27.8977 7.24796 28.2261 6.66324 28.8108C6.07851 29.3955 5.75 30.1885 5.75 31.0154C5.75 31.8423 6.07851 32.6353 6.66324 33.22C7.24796 33.8046 8.04099 34.1331 8.86786 34.1331H12.6036C13.4304 34.1331 14.2235 33.8046 14.8082 33.22C15.3929 32.6353 15.7214 31.8423 15.7214 31.0154C15.7214 30.1885 15.3929 29.3955 14.8082 28.8108C14.2235 28.2261 13.4304 27.8977 12.6036 27.8977ZM57.4321 27.8977H53.6964C52.8696 27.8977 52.0765 28.2261 51.4918 28.8108C50.9071 29.3955 50.5786 30.1885 50.5786 31.0154C50.5786 31.8423 50.9071 32.6353 51.4918 33.22C52.0765 33.8046 52.8696 34.1331 53.6964 34.1331H57.4321C58.259 34.1331 59.052 33.8046 59.6368 33.22C60.2215 32.6353 60.55 31.8423 60.55 31.0154C60.55 30.1885 60.2215 29.3955 59.6368 28.8108C59.052 28.2261 58.259 27.8977 57.4321 27.8977Z" fill="#515151" stroke="white" stroke-width="2.5"/>
</g>
<g filter="url(#filter1_d_781_68)">
<path d="M49.751 26.1406L49.749 26.1406C48.3473 26.1422 47.0035 26.6997 46.0123 27.6909C45.0212 28.682 44.4636 30.0258 44.4621 31.4275V31.4285V45.6761C43.1414 46.704 42.1461 48.0969 41.603 49.6867C41.0104 51.4212 40.9868 53.2995 41.5357 55.0482C42.0846 56.797 43.1772 58.3249 44.6547 59.4097C46.1321 60.4944 47.9171 61.0794 49.75 61.0794C51.5829 61.0794 53.3679 60.4944 54.8453 59.4097C56.3228 58.3249 57.4154 56.797 57.9643 55.0482C58.5132 53.2995 58.4896 51.4212 57.897 49.6867C57.3538 48.0969 56.3586 46.704 55.0379 45.6761L55.0379 31.4285L55.0379 31.4275C55.0364 30.0258 54.4788 28.682 53.4877 27.6909C52.4965 26.6997 51.1527 26.1422 49.751 26.1406ZM55.5335 52.4631L55.5335 52.4649C55.5346 53.4693 55.274 54.4567 54.7775 55.3299C54.2809 56.2031 53.5655 56.9318 52.7017 57.4445C51.8379 57.9571 50.8555 58.236 49.8511 58.2535C48.8468 58.2711 47.8552 58.0268 46.974 57.5447C46.0928 57.0625 45.3524 56.3592 44.8256 55.504C44.2988 54.6487 44.0039 53.671 43.9698 52.6671C43.9358 51.6632 44.1638 50.6678 44.6314 49.7788C45.099 48.8898 45.79 48.1379 46.6366 47.5972L46.638 47.5963C46.8372 47.4685 47.0011 47.2927 47.1146 47.0851C47.2282 46.8774 47.2878 46.6446 47.2879 46.408V46.4074V31.4285C47.2879 30.7756 47.5473 30.1493 48.0091 29.6876C48.4708 29.2259 49.097 28.9665 49.75 28.9665C50.403 28.9665 51.0292 29.2259 51.4909 29.6876C51.9527 30.1493 52.2121 30.7756 52.2121 31.4285V46.4063V46.4069C52.2122 46.6435 52.2718 46.8763 52.3854 47.084C52.4989 47.2916 52.6628 47.4674 52.862 47.5952L52.8648 47.5969C53.6834 48.1177 54.3573 48.8368 54.8238 49.6875C55.2903 50.5382 55.5344 51.4929 55.5335 52.4631Z" fill="black" stroke="white" stroke-width="1.71875"/>
<path d="M53.3188 52.4636L53.3188 52.4652C53.3197 53.0853 53.1591 53.695 52.8527 54.2341C52.5463 54.7732 52.1047 55.2232 51.5715 55.5398C51.0382 55.8563 50.4317 56.0284 49.8117 56.0392C49.1917 56.05 48.5795 55.8991 48.0356 55.6013C47.4916 55.3035 47.0347 54.8691 46.7097 54.341C46.3848 53.8128 46.203 53.2092 46.1824 52.5894C46.1617 51.9696 46.3029 51.3552 46.592 50.8066C46.8812 50.258 47.3082 49.7942 47.8311 49.4609L47.833 49.4597L48.8521 48.8065L48.8524 48.8063C49.0518 48.6784 49.2158 48.5024 49.3294 48.2945C49.4429 48.0867 49.5024 47.8537 49.5024 47.6169C49.5024 47.6168 49.5024 47.6167 49.5024 47.6166V43.9127H49.9979V47.6166C49.9979 47.6167 49.9979 47.6168 49.9979 47.6169C49.9979 47.8537 50.0574 48.0867 50.1709 48.2945C50.2845 48.5024 50.4485 48.6784 50.6479 48.8063L50.6482 48.8065L51.6673 49.4597L51.6702 49.4616C52.1755 49.7827 52.5916 50.2262 52.8798 50.751C53.168 51.2758 53.319 51.8649 53.3188 52.4636ZM53.1908 47.0813L52.8232 46.8458V31.4285C52.8232 30.6133 52.4994 29.8315 51.923 29.2551C51.3466 28.6787 50.5648 28.3549 49.7496 28.3549C48.9344 28.3549 48.1526 28.6787 47.5762 29.2551C46.9998 29.8315 46.6759 30.6133 46.6759 31.4285V46.8458L46.3084 47.0813C46.3081 47.0815 46.3079 47.0817 46.3076 47.0818C45.142 47.8262 44.249 48.9284 43.7628 50.2232C43.2764 51.5182 43.2231 52.9361 43.6108 54.264C43.9986 55.5919 44.8065 56.7583 45.9133 57.5882C47.0201 58.418 48.3662 58.8666 49.7496 58.8666C51.133 58.8666 52.479 58.418 53.5859 57.5882C54.6927 56.7583 55.5006 55.5919 55.8883 54.264C56.2761 52.9361 56.2228 51.5182 55.7364 50.2232C55.2501 48.9285 54.3572 47.8263 53.1916 47.0819C53.1914 47.0817 53.1911 47.0815 53.1908 47.0813ZM49.5018 31.4285C49.5018 31.3628 49.5279 31.2998 49.5744 31.2533C49.6208 31.2068 49.6839 31.1807 49.7496 31.1807C49.8153 31.1807 49.8783 31.2068 49.9248 31.2533C49.9712 31.2998 49.9973 31.3628 49.9973 31.4285V32.2633C49.82 32.3026 49.6517 32.3758 49.5018 32.479V31.4285ZM49.5018 35.8004V34.8065C49.6517 34.9097 49.82 34.9829 49.9973 35.0222V35.5847C49.82 35.624 49.6517 35.6972 49.5018 35.8004ZM49.5018 39.1218V38.1279C49.6517 38.2311 49.82 38.3043 49.9973 38.3436V38.9061C49.82 38.9454 49.6517 39.0186 49.5018 39.1218Z" fill="black" stroke="white" stroke-width="1.71875"/>
<mask id="path-4-outside-1_781_68" maskUnits="userSpaceOnUse" x="44.458" y="50.3251" width="8" height="8" fill="black">
<rect fill="white" x="44.458" y="50.3251" width="8" height="8"/>
<path d="M49.7492 54.6782C49.2201 54.6757 48.7093 54.4849 48.3082 54.14C47.907 53.7951 47.6417 53.3187 47.5598 52.7961C47.5489 52.7242 47.5239 52.6551 47.4863 52.5928C47.4487 52.5305 47.3992 52.4763 47.3406 52.4331C47.2821 52.39 47.2156 52.3588 47.1449 52.3413C47.0743 52.3239 47.0009 52.3205 46.929 52.3314C46.8571 52.3423 46.788 52.3673 46.7257 52.4049C46.6634 52.4425 46.6091 52.492 46.566 52.5505C46.5228 52.6091 46.4916 52.6756 46.4742 52.7462C46.4567 52.8169 46.4534 52.8902 46.4643 52.9622C46.5874 53.7461 46.9856 54.4607 47.5874 54.978C48.1893 55.4952 48.9556 55.7814 49.7492 55.7854C49.896 55.7854 50.0368 55.727 50.1406 55.6232C50.2444 55.5194 50.3027 55.3786 50.3027 55.2318C50.3027 55.085 50.2444 54.9442 50.1406 54.8404C50.0368 54.7365 49.896 54.6782 49.7492 54.6782Z"/>
</mask>
<path d="M49.7492 54.6782C49.2201 54.6757 48.7093 54.4849 48.3082 54.14C47.907 53.7951 47.6417 53.3187 47.5598 52.7961C47.5489 52.7242 47.5239 52.6551 47.4863 52.5928C47.4487 52.5305 47.3992 52.4763 47.3406 52.4331C47.2821 52.39 47.2156 52.3588 47.1449 52.3413C47.0743 52.3239 47.0009 52.3205 46.929 52.3314C46.8571 52.3423 46.788 52.3673 46.7257 52.4049C46.6634 52.4425 46.6091 52.492 46.566 52.5505C46.5228 52.6091 46.4916 52.6756 46.4742 52.7462C46.4567 52.8169 46.4534 52.8902 46.4643 52.9622C46.5874 53.7461 46.9856 54.4607 47.5874 54.978C48.1893 55.4952 48.9556 55.7814 49.7492 55.7854C49.896 55.7854 50.0368 55.727 50.1406 55.6232C50.2444 55.5194 50.3027 55.3786 50.3027 55.2318C50.3027 55.085 50.2444 54.9442 50.1406 54.8404C50.0368 54.7365 49.896 54.6782 49.7492 54.6782Z" fill="black"/>
<path d="M49.7492 54.6782L49.7408 56.397H49.7492V54.6782ZM47.5598 52.7961L45.8604 53.0537L45.8618 53.0623L47.5598 52.7961ZM46.4643 52.9622L44.7649 53.2198L44.7663 53.2289L46.4643 52.9622ZM49.7492 55.7854L49.7407 57.5041H49.7492V55.7854ZM49.7575 52.9595C49.6367 52.9589 49.5201 52.9154 49.4286 52.8367L47.1877 55.4434C47.8985 56.0544 48.8035 56.3924 49.7408 56.397L49.7575 52.9595ZM49.4286 52.8367C49.337 52.758 49.2765 52.6492 49.2578 52.53L45.8618 53.0623C46.0069 53.9883 46.477 54.8323 47.1877 55.4434L49.4286 52.8367ZM49.2591 52.5385C49.2144 52.2434 49.112 51.96 48.9577 51.7045L46.0149 53.4811C45.9359 53.3502 45.8834 53.2049 45.8604 53.0537L49.2591 52.5385ZM48.9577 51.7045C48.8034 51.449 48.6004 51.2264 48.3601 51.0493L46.3212 53.8169C46.198 53.7262 46.094 53.6121 46.0149 53.4811L48.9577 51.7045ZM48.3601 51.0493C48.1198 50.8723 47.847 50.7443 47.5572 50.6727L46.7326 54.0099C46.5841 53.9732 46.4443 53.9076 46.3212 53.8169L48.3601 51.0493ZM47.5572 50.6727C47.2675 50.6011 46.9665 50.5873 46.6714 50.6321L47.1866 54.0307C47.0354 54.0537 46.8811 54.0466 46.7326 54.0099L47.5572 50.6727ZM46.6714 50.6321C46.3763 50.6768 46.0929 50.7792 45.8374 50.9335L47.614 53.8763C47.483 53.9553 47.3378 54.0078 47.1866 54.0307L46.6714 50.6321ZM45.8374 50.9335C45.5819 51.0877 45.3593 51.2908 45.1822 51.5311L47.9497 53.57C47.859 53.6931 47.7449 53.7972 47.614 53.8763L45.8374 50.9335ZM45.1822 51.5311C45.0052 51.7714 44.8772 52.0442 44.8056 52.3339L48.1427 53.1586C48.1061 53.307 48.0405 53.4468 47.9497 53.57L45.1822 51.5311ZM44.8056 52.3339C44.734 52.6237 44.7202 52.9247 44.7649 53.2198L48.1636 52.7046C48.1865 52.8558 48.1794 53.0101 48.1427 53.1586L44.8056 52.3339ZM44.7663 53.2289C44.9529 54.4161 45.5558 55.4982 46.4671 56.2815L48.7077 53.6745C48.4154 53.4232 48.222 53.0762 48.1622 52.6954L44.7663 53.2289ZM46.4671 56.2815C47.3785 57.0647 48.5389 57.4981 49.7407 57.5041L49.7577 54.0666C49.3722 54.0647 49 53.9257 48.7077 53.6745L46.4671 56.2815ZM49.7492 57.5041C50.3518 57.5041 50.9298 57.2647 51.3559 56.8386L48.9253 54.4079C49.1438 54.1894 49.4401 54.0666 49.7492 54.0666V57.5041ZM51.3559 56.8386C51.7821 56.4124 52.0215 55.8344 52.0215 55.2318H48.584C48.584 54.9228 48.7067 54.6264 48.9253 54.4079L51.3559 56.8386ZM52.0215 55.2318C52.0215 54.6291 51.7821 54.0512 51.3559 53.625L48.9253 56.0557C48.7067 55.8372 48.584 55.5408 48.584 55.2318H52.0215ZM51.3559 53.625C50.9298 53.1989 50.3518 52.9595 49.7492 52.9595V56.397C49.4401 56.397 49.1438 56.2742 48.9253 56.0557L51.3559 53.625Z" fill="white" mask="url(#path-4-outside-1_781_68)"/>
<path d="M47.536 52.2162C48.3163 52.2162 48.9489 51.5836 48.9489 50.8033C48.9489 50.0229 48.3163 49.3903 47.536 49.3903C46.7557 49.3903 46.123 50.0229 46.123 50.8033C46.123 51.5836 46.7557 52.2162 47.536 52.2162Z" fill="black" stroke="white" stroke-width="1.71875"/>
</g>
<path d="M16.1393 48.2596C15.8586 47.8502 15.3681 47.3334 14.6244 47.1761L14.6231 47.1759C13.8254 47.0049 12.8077 47.2516 11.5668 48.0595C12.7378 48.9711 13.731 49.3042 14.541 49.2016L16.1393 48.2596ZM16.1393 48.2596C15.8276 48.6403 15.2967 49.1052 14.5413 49.2015L16.1393 48.2596ZM24.1909 56.0512L24.1909 56.0512L24.1881 56.0484C22.7975 54.6372 20.6426 53.7502 18.2952 53.5288C18.4803 52.6497 18.6745 51.3546 18.5772 50.0781C18.824 50.1266 19.0886 50.1563 19.3676 50.1563C19.6989 50.1563 20.0406 50.1148 20.3966 50.0214L20.3977 50.0211C21.8949 49.6246 23.1304 48.3858 24.1055 46.5103L24.1056 46.5101C24.3144 46.1078 24.3312 45.6367 24.1371 45.2158C23.9494 44.8029 23.5831 44.5003 23.1418 44.3919L23.1418 44.3919L23.1397 44.3914C21.0825 43.8958 19.3396 44.0168 18.0561 44.8862L18.0553 44.8868C17.4696 45.2852 17.069 45.7771 16.7946 46.2649C16.3428 45.8829 15.7546 45.5416 15.0129 45.3835C13.4976 45.0581 11.8373 45.6069 10.1179 46.8364C9.7404 47.1042 9.52411 47.5211 9.50124 47.971L9.50117 47.971L9.50088 47.9794C9.4855 48.4331 9.67154 48.8626 10.014 49.1584L10.016 49.1601C11.4458 50.3818 12.872 51.0533 14.2536 51.0533C14.43 51.0533 14.6014 51.0416 14.7728 51.0181C15.5944 50.9135 16.2479 50.5796 16.7464 50.1996C16.7884 50.7465 16.7621 51.325 16.7004 51.8753C16.6289 52.5115 16.5129 53.0875 16.4163 53.4975C13.8998 53.6411 11.5562 54.5492 10.0788 56.047C9.76415 56.3627 9.67779 56.8329 9.85034 57.2355C10.0193 57.6298 10.4075 57.8994 10.8512 57.8994H23.4092C23.845 57.8994 24.2367 57.6425 24.409 57.2381C24.5928 56.8246 24.4882 56.3578 24.1909 56.0512ZM17.1354 55.3064C18.5473 55.3064 19.8768 55.5828 20.9821 56.0694H13.2886C14.3939 55.5828 15.7235 55.3064 17.1354 55.3064ZM19.0852 46.4055L19.0866 46.4046C19.529 46.1041 20.1244 45.9342 20.9038 45.9342C21.3122 45.9342 21.7616 45.9792 22.2554 46.0743C21.5135 47.3563 20.716 48.0413 19.9303 48.2502C19.1928 48.4457 18.5234 48.21 18.092 47.9717C18.1957 47.4888 18.4553 46.8304 19.0852 46.4055Z" fill="black" stroke="#EAE8DB"/>
<defs>
<filter id="filter0_d_781_68" x="0.5" y="0.5" width="65.2998" height="61.56" filterUnits="userSpaceOnUse" color-interpolation-filters="sRGB">
<feFlood flood-opacity="0" result="BackgroundImageFix"/>
<feColorMatrix in="SourceAlpha" type="matrix" values="0 0 0 0 0 0 0 0 0 0 0 0 0 0 0 0 0 0 127 0" result="hardAlpha"/>
<feOffset dy="4"/>
<feGaussianBlur stdDeviation="2"/>
<feComposite in2="hardAlpha" operator="out"/>
<feColorMatrix type="matrix" values="0 0 0 0 0 0 0 0 0 0 0 0 0 0 0 0 0 0 0.25 0"/>
<feBlend mode="normal" in2="BackgroundImageFix" result="effect1_dropShadow_781_68"/>
<feBlend mode="normal" in="SourceGraphic" in2="effect1_dropShadow_781_68" result="shape"/>
</filter>
<filter id="filter1_d_781_68" x="37.5312" y="25.2812" width="24.4375" height="42.1575" filterUnits="userSpaceOnUse" color-interpolation-filters="sRGB">
<feFlood flood-opacity="0" result="BackgroundImageFix"/>
<feColorMatrix in="SourceAlpha" type="matrix" values="0 0 0 0 0 0 0 0 0 0 0 0 0 0 0 0 0 0 127 0" result="hardAlpha"/>
<feOffset dy="2.75"/>
<feGaussianBlur stdDeviation="1.375"/>
<feComposite in2="hardAlpha" operator="out"/>
<feColorMatrix type="matrix" values="0 0 0 0 0 0 0 0 0 0 0 0 0 0 0 0 0 0 0.25 0"/>
<feBlend mode="normal" in2="BackgroundImageFix" result="effect1_dropShadow_781_68"/>
<feBlend mode="normal" in="SourceGraphic" in2="effect1_dropShadow_781_68" result="shape"/>
</filter>
</defs>
</svg>
