<svg width="63" height="58" viewBox="0 0 63 58" fill="none" xmlns="http://www.w3.org/2000/svg">
<g filter="url(#filter0_d_781_113)">
<path d="M37.2545 5.17969L37.249 5.1706L37.2433 5.16165C36.4646 3.94339 35.3916 2.9408 34.1235 2.24632C32.8553 1.55183 31.4327 1.18781 29.9868 1.18781C28.5409 1.18781 27.1183 1.55183 25.8501 2.24632C24.5819 2.9408 23.509 3.94339 22.7302 5.16165L22.7245 5.1706L22.719 5.17969L5.27644 34.1066L5.2755 34.1082C4.58598 35.2576 4.21121 36.5683 4.18887 37.9084C4.16654 39.2486 4.49742 40.571 5.14825 41.7427L5.14821 41.7428L5.15281 41.7509C5.89649 43.0544 6.97291 44.137 8.27208 44.8883C9.57066 45.6391 11.0452 46.032 12.5452 46.0266H47.4251C48.9144 46.0417 50.3815 45.6641 51.6785 44.9318C52.9767 44.1987 54.0587 43.1362 54.8152 41.8514L54.8153 41.8515L54.8221 41.8393C55.4921 40.6554 55.8335 39.314 55.8112 37.9538C55.7888 36.5943 55.4038 35.2655 54.6959 34.1046C54.6955 34.104 54.6952 34.1035 54.6949 34.103L37.2545 5.17969ZM29.9868 35.3057C29.6976 35.3057 29.415 35.22 29.1746 35.0593C28.9341 34.8987 28.7468 34.6704 28.6361 34.4032C28.5255 34.1361 28.4965 33.8421 28.5529 33.5585C28.6093 33.275 28.7486 33.0145 28.953 32.81C29.1575 32.6056 29.418 32.4663 29.7016 32.4099C29.9851 32.3535 30.2791 32.3825 30.5462 32.4931C30.8134 32.6038 31.0417 32.7911 31.2023 33.0315C31.363 33.272 31.4487 33.5546 31.4487 33.8438C31.4487 34.2315 31.2947 34.6033 31.0205 34.8775C30.7463 35.1517 30.3745 35.3057 29.9868 35.3057ZM31.4487 27.0214C31.4487 27.4091 31.2947 27.781 31.0205 28.0551C30.7463 28.3293 30.3745 28.4833 29.9868 28.4833C29.599 28.4833 29.2272 28.3293 28.953 28.0551C28.6789 27.781 28.5248 27.4091 28.5248 27.0214V17.9249C28.5248 17.5371 28.6788 17.1653 28.953 16.8911C29.2272 16.6169 29.599 16.4629 29.9868 16.4629C30.3745 16.4629 30.7463 16.6169 31.0205 16.8911C31.2947 17.1653 31.4487 17.5371 31.4487 17.9249V27.0214Z" fill="#515151" stroke="white" stroke-width="1.62438"/>
</g>
<g filter="url(#filter1_d_781_113)">
<path d="M50.0559 50.4982C48.6707 50.4929 47.3437 49.9403 46.3642 48.9608C45.3847 47.9813 44.8321 46.6544 44.8268 45.2692C44.8268 42.7954 48.4469 36.2189 49.171 34.9116C49.2685 34.7664 49.4002 34.6475 49.5545 34.5652C49.7088 34.483 49.881 34.4399 50.0559 34.4399C50.2308 34.4399 50.4029 34.483 50.5573 34.5652C50.7116 34.6475 50.8433 34.7664 50.9408 34.9116C51.6648 36.2189 55.2849 42.7954 55.2849 45.2692C55.2796 46.6544 54.727 47.9813 53.7475 48.9608C52.768 49.9403 51.4411 50.4929 50.0559 50.4982ZM50.0559 37.5261C48.6201 39.9408 47.5365 42.5481 46.838 45.2692C46.838 46.1226 47.177 46.9411 47.7805 47.5446C48.384 48.148 49.2024 48.4871 50.0559 48.4871C50.9093 48.4871 51.7278 48.148 52.3313 47.5446C52.9347 46.9411 53.2738 46.1226 53.2738 45.2692C52.5752 42.5481 51.4917 39.9408 50.0559 37.5261ZM44.0224 36.42C42.9556 36.42 41.9325 35.9962 41.1781 35.2419C40.4238 34.4875 40 33.4644 40 32.3976C40 30.5675 42.6145 25.801 43.1374 24.8557C43.2349 24.7106 43.3666 24.5916 43.521 24.5093C43.6753 24.4271 43.8475 24.384 44.0224 24.384C44.1972 24.384 44.3694 24.4271 44.5237 24.5093C44.6781 24.5916 44.8098 24.7106 44.9073 24.8557C45.4302 25.801 48.0447 30.5675 48.0447 32.3976C48.0447 33.4644 47.6209 34.4875 46.8666 35.2419C46.1122 35.9962 45.0891 36.42 44.0224 36.42ZM44.0224 27.4904C43.1205 29.0214 42.4432 30.6741 42.0112 32.3976C42.0112 32.931 42.2231 33.4426 42.6002 33.8198C42.9774 34.1969 43.489 34.4088 44.0224 34.4088C44.5557 34.4088 45.0673 34.1969 45.4445 33.8198C45.8216 33.4426 46.0335 32.931 46.0335 32.3976C45.6015 30.6741 44.9242 29.0214 44.0224 27.4904ZM54.0782 32.3976C53.0114 32.3976 51.9883 31.9739 51.234 31.2195C50.4797 30.4652 50.0559 29.4421 50.0559 28.3753C50.0559 26.5451 52.6704 21.7786 53.1933 20.8334C53.2908 20.6882 53.4225 20.5692 53.5768 20.487C53.7312 20.4047 53.9034 20.3617 54.0782 20.3617C54.2531 20.3617 54.4253 20.4047 54.5796 20.487C54.7339 20.5692 54.8657 20.6882 54.9631 20.8334C55.4861 21.7786 58.1006 26.5451 58.1006 28.3753C58.1006 29.4421 57.6768 30.4652 56.9225 31.2195C56.1681 31.9739 55.145 32.3976 54.0782 32.3976ZM54.0782 23.468C53.1764 24.9991 52.4991 26.6517 52.0671 28.3753C52.0671 28.9087 52.2789 29.4202 52.6561 29.7974C53.0333 30.1746 53.5448 30.3865 54.0782 30.3865C54.6116 30.3865 55.1232 30.1746 55.5003 29.7974C55.8775 29.4202 56.0894 28.9087 56.0894 28.3753C55.6573 26.6517 54.98 24.9991 54.0782 23.468Z" fill="black"/>
<path d="M43.9659 45.2692L43.9659 45.2725C43.972 46.8849 44.6153 48.4295 45.7554 49.5696C46.8956 50.7097 48.4402 51.353 50.0526 51.3592L50.0592 51.3592C51.6716 51.353 53.2162 50.7097 54.3563 49.5696C55.4965 48.4295 56.1397 46.8849 56.1459 45.2725V45.2692C56.1459 44.4916 55.8731 43.4965 55.519 42.5022C55.1552 41.4805 54.6672 40.3576 54.1635 39.2866C53.1552 37.1428 52.0577 35.1513 51.6939 34.4945L51.6761 34.4622L51.6555 34.4317C51.4793 34.1692 51.2412 33.9542 50.9622 33.8055C50.6833 33.6568 50.372 33.579 50.0559 33.579C49.7398 33.579 49.4285 33.6568 49.1495 33.8055C48.8794 33.9494 48.6476 34.1556 48.4732 34.4068C48.7556 33.7813 48.9057 33.0972 48.9057 32.3976C48.9057 31.7833 48.6972 31.0239 48.4401 30.294C48.1737 29.5378 47.8176 28.7125 47.4521 27.9303C46.7202 26.3643 45.9243 24.9155 45.6606 24.439L45.6427 24.4065L45.622 24.3758C45.4458 24.1133 45.2077 23.8983 44.9287 23.7496C44.6497 23.6009 44.3385 23.5231 44.0224 23.5231C43.7062 23.5231 43.395 23.6009 43.116 23.7496C42.837 23.8983 42.5989 24.1133 42.4227 24.3758L42.402 24.4065L42.3841 24.439C42.1204 24.9155 41.3245 26.3643 40.5926 27.9303C40.2271 28.7125 39.871 29.5378 39.6047 30.294C39.3475 31.0239 39.1391 31.7833 39.1391 32.3976C39.1391 33.6928 39.6535 34.9349 40.5693 35.8507C41.4851 36.7665 42.7272 37.2809 44.0224 37.2809C45.3175 37.2809 46.5596 36.7665 47.4754 35.8507C47.6953 35.6308 47.892 35.392 48.0641 35.1383C47.558 36.0678 46.7265 37.6318 45.9483 39.2866C45.4446 40.3576 44.9566 41.4805 44.5927 42.5022C44.2387 43.4965 43.9659 44.4916 43.9659 45.2692ZM52.4786 20.3534L52.4579 20.3842L52.44 20.4166C52.1763 20.8932 51.3804 22.342 50.6485 23.908C50.283 24.6902 49.9269 25.5154 49.6605 26.2716C49.4034 27.0016 49.1949 27.761 49.1949 28.3753C49.1949 29.6704 49.7094 30.9125 50.6252 31.8283C51.541 32.7441 52.7831 33.2586 54.0782 33.2586C55.3734 33.2586 56.6155 32.7441 57.5312 31.8283C58.447 30.9125 58.9615 29.6704 58.9615 28.3753C58.9615 27.761 58.7531 27.0016 58.4959 26.2716C58.2295 25.5154 57.8735 24.6902 57.5079 23.908C56.7761 22.342 55.9801 20.8932 55.7165 20.4166L55.6986 20.3842L55.6779 20.3534C55.5017 20.091 55.2636 19.8759 54.9846 19.7272C54.7056 19.5785 54.3944 19.5007 54.0782 19.5007C53.7621 19.5007 53.4508 19.5785 53.1719 19.7272C52.8929 19.8759 52.6548 20.091 52.4786 20.3534ZM48.3893 46.9358C47.9712 46.5177 47.7264 45.9587 47.7011 45.3704C48.2524 43.2588 49.0427 41.2186 50.0559 39.2892C51.069 41.2186 51.8594 43.2588 52.4106 45.3704C52.3854 45.9587 52.1406 46.5177 51.7225 46.9358C51.2805 47.3778 50.681 47.6261 50.0559 47.6261C49.4308 47.6261 48.8313 47.3778 48.3893 46.9358ZM43.209 33.211C43.0153 33.0173 42.8978 32.7616 42.8759 32.4906C43.157 31.4008 43.541 30.3413 44.0224 29.3263C44.5037 30.3413 44.8877 31.4008 45.1688 32.4906C45.1469 32.7616 45.0294 33.0173 44.8357 33.211C44.62 33.4267 44.3274 33.5479 44.0224 33.5479C43.7173 33.5479 43.4247 33.4267 43.209 33.211ZM53.2649 29.1886C53.0712 28.9949 52.9537 28.7393 52.9318 28.4682C53.2128 27.3784 53.5969 26.3189 54.0782 25.304C54.5595 26.3189 54.9436 27.3784 55.2247 28.4682C55.2027 28.7393 55.0853 28.9949 54.8916 29.1886C54.6759 29.4043 54.3833 29.5255 54.0782 29.5255C53.7732 29.5255 53.4806 29.4043 53.2649 29.1886Z" stroke="white" stroke-width="1.7219"/>
</g>
<defs>
<filter id="filter0_d_781_113" x="0.0234432" y="0.37561" width="59.9531" height="53.1687" filterUnits="userSpaceOnUse" color-interpolation-filters="sRGB">
<feFlood flood-opacity="0" result="BackgroundImageFix"/>
<feColorMatrix in="SourceAlpha" type="matrix" values="0 0 0 0 0 0 0 0 0 0 0 0 0 0 0 0 0 0 127 0" result="hardAlpha"/>
<feOffset dy="3.35253"/>
<feGaussianBlur stdDeviation="1.67627"/>
<feComposite in2="hardAlpha" operator="out"/>
<feColorMatrix type="matrix" values="0 0 0 0 0 0 0 0 0 0 0 0 0 0 0 0 0 0 0.25 0"/>
<feBlend mode="normal" in2="BackgroundImageFix" result="effect1_dropShadow_781_113"/>
<feBlend mode="normal" in="SourceGraphic" in2="effect1_dropShadow_781_113" result="shape"/>
</filter>
<filter id="filter1_d_781_113" x="35.5233" y="18.6398" width="27.054" height="39.0904" filterUnits="userSpaceOnUse" color-interpolation-filters="sRGB">
<feFlood flood-opacity="0" result="BackgroundImageFix"/>
<feColorMatrix in="SourceAlpha" type="matrix" values="0 0 0 0 0 0 0 0 0 0 0 0 0 0 0 0 0 0 127 0" result="hardAlpha"/>
<feOffset dy="2.75504"/>
<feGaussianBlur stdDeviation="1.37752"/>
<feComposite in2="hardAlpha" operator="out"/>
<feColorMatrix type="matrix" values="0 0 0 0 0 0 0 0 0 0 0 0 0 0 0 0 0 0 0.25 0"/>
<feBlend mode="normal" in2="BackgroundImageFix" result="effect1_dropShadow_781_113"/>
<feBlend mode="normal" in="SourceGraphic" in2="effect1_dropShadow_781_113" result="shape"/>
</filter>
</defs>
</svg>
