<svg width="41" height="42" viewBox="0 0 41 42" fill="none" xmlns="http://www.w3.org/2000/svg">
<path d="M33.4583 19.2917H23.2083V9.04166C23.2083 8.58858 23.0283 8.15406 22.7079 7.83369C22.3875 7.51331 21.953 7.33333 21.4999 7.33333C21.0468 7.33333 20.6123 7.51331 20.2919 7.83369C19.9716 8.15406 19.7916 8.58858 19.7916 9.04166V19.2917H9.54159C9.08851 19.2917 8.65399 19.4716 8.33361 19.792C8.01324 20.1124 7.83325 20.5469 7.83325 21C7.83325 21.4531 8.01324 21.8876 8.33361 22.208C8.65399 22.5283 9.08851 22.7083 9.54159 22.7083H19.7916V32.9583C19.7916 33.4114 19.9716 33.8459 20.2919 34.1663C20.6123 34.4867 21.0468 34.6667 21.4999 34.6667C21.953 34.6667 22.3875 34.4867 22.7079 34.1663C23.0283 33.8459 23.2083 33.4114 23.2083 32.9583V22.7083H33.4583C33.9113 22.7083 34.3459 22.5283 34.6662 22.208C34.9866 21.8876 35.1666 21.4531 35.1666 21C35.1666 20.5469 34.9866 20.1124 34.6662 19.792C34.3459 19.4716 33.9113 19.2917 33.4583 19.2917Z" fill="#D9A30B"/>
</svg>
